<svg width="563" height="563" viewBox="0 0 563 563" fill="none" xmlns="http://www.w3.org/2000/svg">
<g clip-path="url(#clip0_419_12911)">
<rect width="563" height="563" fill="black"/>
<path d="M-15.6268 671.347C-45.0339 671.347 -68.4059 663.312 -84.551 647.167C-120.685 611.071 -116.265 538.995 -72.0963 444.238C-28.1969 349.982 49.7994 244.308 147.516 146.668C245.232 49.0289 350.983 -28.8906 445.316 -72.7515C540.15 -116.882 612.303 -121.264 648.399 -85.1678C684.533 -49.0719 680.113 23.0046 635.944 117.761C592.045 212.018 514.049 317.691 416.332 415.331C318.616 512.971 212.865 590.89 118.532 634.751C66.1369 659.122 20.6613 671.347 -15.6268 671.347ZM579.436 -106.003C477.914 -106.003 307.199 -8.13254 149.899 149.052C-50.877 349.674 -154.975 572.054 -82.1677 644.784C-66.407 660.506 -43.65 668.002 -15.5883 668.002C85.9338 668.002 256.649 570.132 413.949 412.948C614.687 212.364 718.784 -10.0161 645.977 -82.7845C630.217 -98.5452 607.46 -106.003 579.436 -106.003Z" fill="url(#paint0_linear_419_12911)"/>
<path d="M-162.97 725.51C-163.624 724.856 -163.624 723.78 -162.97 723.127L724.396 -163.51C725.05 -164.163 726.126 -164.163 726.78 -163.51C727.433 -162.856 727.433 -161.78 726.78 -161.127L-160.587 725.51C-161.241 726.163 -162.317 726.163 -162.97 725.51Z" fill="url(#paint1_linear_419_12911)"/>
<path d="M281.905 547.606C429.264 547.606 548.722 428.234 548.722 280.981C548.722 133.728 429.264 14.3555 281.905 14.3555C134.546 14.3555 15.0874 133.728 15.0874 280.981C15.0874 428.234 134.546 547.606 281.905 547.606Z" fill="#191919"/>
<path d="M287.747 276.79C287.286 276.79 286.863 276.598 286.517 276.252L99.0804 77.0515C98.4269 76.3595 98.4652 75.3217 99.1571 74.6682C99.849 74.0147 100.887 74.0532 101.54 74.7451L288.978 273.945C289.631 274.637 289.593 275.675 288.901 276.329C288.555 276.636 288.132 276.79 287.747 276.79Z" fill="url(#paint2_radial_419_12911)"/>
<path d="M287.747 276.79C287.248 276.79 286.748 276.56 286.44 276.137L77.976 14.1244C77.3994 13.3941 77.5147 12.3177 78.2451 11.7411C78.9755 11.1645 80.0518 11.2799 80.6284 12.0102L289.093 274.023C289.669 274.753 289.554 275.829 288.824 276.406C288.478 276.675 288.093 276.79 287.747 276.79Z" fill="url(#paint3_radial_419_12911)"/>
<path d="M287.747 276.79C287.209 276.79 286.671 276.521 286.325 276.021L134.33 48.6438C133.83 47.8749 134.023 46.837 134.791 46.2988C135.56 45.7991 136.598 45.9914 137.136 46.7602L289.131 274.137C289.631 274.906 289.438 275.944 288.67 276.482C288.401 276.713 288.055 276.79 287.747 276.79Z" fill="url(#paint4_radial_419_12911)"/>
<path d="M287.748 276.789C287.171 276.789 286.595 276.482 286.287 275.905L123.952 -16.8599C123.491 -17.6671 123.798 -18.7051 124.605 -19.1664C125.413 -19.6277 126.451 -19.3201 126.912 -18.5128L289.247 274.252C289.708 275.059 289.401 276.097 288.594 276.559C288.286 276.751 288.017 276.789 287.748 276.789Z" fill="url(#paint5_radial_419_12911)"/>
<path d="M287.748 276.789C287.094 276.789 286.479 276.405 286.21 275.79L173.848 26.463C173.463 25.6173 173.848 24.6178 174.693 24.2333C175.539 23.8489 176.539 24.2333 176.923 25.079L289.285 274.406C289.67 275.252 289.285 276.251 288.439 276.635C288.209 276.751 287.978 276.789 287.748 276.789Z" fill="url(#paint6_radial_419_12911)"/>
<path d="M287.747 276.789C287.055 276.789 286.401 276.366 286.171 275.674L174.423 -39.8477C174.116 -40.7318 174.577 -41.693 175.461 -42.0005C176.345 -42.308 177.306 -41.8466 177.614 -40.9625L289.361 274.559C289.669 275.443 289.207 276.404 288.323 276.712C288.131 276.789 287.939 276.789 287.747 276.789Z" fill="url(#paint7_radial_419_12911)"/>
<path d="M287.747 276.789C287.017 276.789 286.325 276.289 286.133 275.52L216.517 11.0863C216.286 10.2021 216.824 9.27954 217.708 9.01045C218.593 8.77981 219.515 9.31797 219.784 10.2021L289.4 274.636C289.631 275.52 289.093 276.443 288.209 276.712C288.016 276.789 287.863 276.789 287.747 276.789Z" fill="url(#paint8_radial_419_12911)"/>
<path d="M287.747 276.789C286.94 276.789 286.248 276.213 286.094 275.406L227.972 -54.2241C227.818 -55.1466 228.433 -56.0307 229.356 -56.1845C230.278 -56.3382 231.162 -55.7232 231.316 -54.8006L289.439 274.829C289.592 275.752 288.977 276.636 288.055 276.789C287.939 276.789 287.824 276.789 287.747 276.789Z" fill="url(#paint9_radial_419_12911)"/>
<path d="M287.747 276.789C286.902 276.789 286.133 276.135 286.056 275.251L261.031 2.97506C260.954 2.05248 261.646 1.24518 262.569 1.12986C263.453 1.05298 264.298 1.745 264.414 2.66758L289.439 274.943C289.516 275.866 288.824 276.673 287.901 276.789C287.824 276.789 287.786 276.789 287.747 276.789Z" fill="url(#paint10_radial_419_12911)"/>
<path d="M287.747 276.79C286.825 276.79 286.056 276.021 286.056 275.098L285.749 -59.6055C285.749 -60.5281 286.517 -61.2969 287.44 -61.2969C288.363 -61.2969 289.131 -60.5281 289.131 -59.6055L289.439 275.098C289.439 276.059 288.67 276.79 287.747 276.79Z" fill="url(#paint11_radial_419_12911)"/>
<path d="M287.748 276.789C287.709 276.789 287.671 276.789 287.632 276.789C286.71 276.712 286.018 275.905 286.056 274.983L306.353 2.28379C306.43 1.36122 307.237 0.630827 308.16 0.707708C309.082 0.78459 309.774 1.59185 309.736 2.51443L289.439 275.213C289.362 276.097 288.632 276.789 287.748 276.789Z" fill="url(#paint12_radial_419_12911)"/>
<path d="M287.748 276.79C287.671 276.79 287.556 276.79 287.479 276.751C286.556 276.597 285.941 275.752 286.056 274.829L338.49 -55.7616C338.643 -56.6842 339.489 -57.2992 340.412 -57.1454C341.334 -56.9916 341.949 -56.1459 341.834 -55.2234L289.401 275.367C289.285 276.213 288.555 276.79 287.748 276.79Z" fill="url(#paint13_radial_419_12911)"/>
<path d="M287.748 276.79C287.632 276.79 287.479 276.79 287.363 276.752C286.441 276.521 285.903 275.599 286.133 274.714L351.175 9.12715C351.406 8.20457 352.328 7.66637 353.213 7.89702C354.135 8.12766 354.673 9.05024 354.443 9.93438L289.401 275.522C289.17 276.29 288.478 276.79 287.748 276.79Z" fill="url(#paint14_radial_419_12911)"/>
<path d="M287.747 276.789C287.555 276.789 287.402 276.75 287.209 276.712C286.325 276.404 285.864 275.443 286.133 274.559L392.422 -42.8462C392.729 -43.7303 393.69 -44.1917 394.575 -43.9226C395.459 -43.6151 395.92 -42.654 395.651 -41.7698L289.362 275.635C289.093 276.366 288.439 276.789 287.747 276.789Z" fill="url(#paint15_radial_419_12911)"/>
<path d="M287.748 276.791C287.518 276.791 287.287 276.752 287.095 276.637C286.249 276.253 285.826 275.292 286.211 274.408L394.229 23.1971C394.614 22.3514 395.575 21.9285 396.459 22.3129C397.305 22.6973 397.727 23.6584 397.343 24.5425L289.325 275.753C289.017 276.406 288.402 276.791 287.748 276.791Z" fill="url(#paint16_radial_419_12911)"/>
<path d="M287.747 276.79C287.478 276.79 287.209 276.714 286.94 276.598C286.132 276.175 285.786 275.137 286.248 274.33L443.509 -21.2024C443.932 -22.0097 444.97 -22.3172 445.777 -21.8944C446.584 -21.4715 446.93 -20.4336 446.469 -19.6264L289.207 275.906C288.938 276.483 288.362 276.79 287.747 276.79Z" fill="url(#paint17_radial_419_12911)"/>
<path d="M287.747 276.79C287.44 276.79 287.132 276.714 286.825 276.521C286.056 276.022 285.825 274.984 286.325 274.176L434.36 44.1853C434.86 43.4165 435.898 43.1859 436.705 43.6856C437.474 44.1853 437.704 45.2233 437.205 46.0305L289.169 276.022C288.823 276.521 288.285 276.79 287.747 276.79Z" fill="url(#paint18_radial_419_12911)"/>
<path d="M287.748 276.791C287.402 276.791 287.017 276.675 286.71 276.445C285.979 275.868 285.826 274.83 286.402 274.061L490.292 8.51253C490.869 7.78215 491.907 7.62844 492.675 8.20505C493.406 8.78166 493.56 9.81954 492.983 10.5884L289.093 276.137C288.747 276.56 288.247 276.791 287.748 276.791Z" fill="url(#paint19_radial_419_12911)"/>
<path d="M287.748 276.79C287.325 276.79 286.94 276.636 286.594 276.367C285.902 275.752 285.864 274.675 286.479 273.983L470.457 71.5544C471.072 70.8624 472.148 70.824 472.84 71.439C473.532 72.0541 473.57 73.1304 472.955 73.8223L288.978 276.251C288.67 276.597 288.209 276.79 287.748 276.79Z" fill="url(#paint20_radial_419_12911)"/>
<path d="M287.748 276.791C287.287 276.791 286.864 276.599 286.518 276.253C285.864 275.561 285.903 274.484 286.595 273.869L531.539 45.5696C532.231 44.9161 533.308 44.9545 533.923 45.6464C534.576 46.3384 534.538 47.4147 533.846 48.0297L288.901 276.33C288.555 276.637 288.171 276.791 287.748 276.791Z" fill="url(#paint21_radial_419_12911)"/>
<path d="M287.747 276.79C287.247 276.79 286.748 276.559 286.402 276.136C285.825 275.406 285.941 274.33 286.671 273.753L501.555 104.46C502.285 103.883 503.361 103.999 503.938 104.729C504.515 105.459 504.399 106.536 503.669 107.112L288.785 276.405C288.478 276.675 288.093 276.79 287.747 276.79Z" fill="url(#paint22_radial_419_12911)"/>
<path d="M287.748 276.789C287.209 276.789 286.671 276.52 286.325 276.02C285.825 275.251 286.018 274.214 286.786 273.675L566.097 88.8906C566.866 88.3909 567.904 88.5831 568.442 89.3519C568.942 90.1207 568.75 91.1587 567.981 91.6969L288.67 276.482C288.401 276.712 288.055 276.789 287.748 276.789Z" fill="url(#paint23_radial_419_12911)"/>
<path d="M287.747 276.789C287.171 276.789 286.556 276.482 286.248 275.905C285.787 275.098 286.094 274.06 286.902 273.599L526.81 142.054C527.618 141.593 528.656 141.901 529.117 142.708C529.578 143.515 529.271 144.553 528.463 145.014L288.555 276.559C288.285 276.712 288.016 276.789 287.747 276.789Z" fill="url(#paint24_radial_419_12911)"/>
<path d="M287.747 276.79C287.093 276.79 286.479 276.405 286.209 275.79C285.825 274.945 286.209 273.945 287.055 273.561L593.044 137.365C593.889 136.981 594.889 137.365 595.273 138.211C595.657 139.057 595.273 140.056 594.427 140.441L288.439 276.636C288.208 276.751 287.978 276.79 287.747 276.79Z" fill="url(#paint25_radial_419_12911)"/>
<path d="M287.747 276.79C287.055 276.79 286.402 276.367 286.171 275.675C285.864 274.791 286.325 273.83 287.209 273.522L545.531 183.34C546.415 183.033 547.376 183.494 547.684 184.378C547.991 185.262 547.53 186.223 546.646 186.531L288.324 276.713C288.093 276.751 287.901 276.79 287.747 276.79Z" fill="url(#paint26_radial_419_12911)"/>
<path d="M287.748 276.791C286.979 276.791 286.326 276.291 286.133 275.522C285.903 274.638 286.441 273.716 287.363 273.485L611.65 189.607C612.572 189.376 613.457 189.915 613.726 190.799C613.956 191.683 613.418 192.606 612.496 192.836L288.209 276.714C288.017 276.791 287.863 276.791 287.748 276.791Z" fill="url(#paint27_radial_419_12911)"/>
<path d="M287.748 276.789C286.941 276.789 286.21 276.212 286.095 275.405C285.941 274.483 286.556 273.599 287.479 273.445L557.179 227.085C558.102 226.931 558.986 227.546 559.14 228.469C559.294 229.392 558.678 230.276 557.756 230.43L288.055 276.789C287.94 276.789 287.825 276.789 287.748 276.789Z" fill="url(#paint28_radial_419_12911)"/>
<path d="M287.748 276.791C286.902 276.791 286.133 276.137 286.057 275.253C285.98 274.33 286.672 273.523 287.594 273.408L621.299 244.154C622.221 244.077 623.028 244.769 623.144 245.692C623.221 246.615 622.529 247.422 621.606 247.537L287.902 276.791C287.825 276.791 287.786 276.791 287.748 276.791Z" fill="url(#paint29_radial_419_12911)"/>
<path d="M287.748 276.789C286.825 276.789 286.057 276.02 286.057 275.098C286.057 274.175 286.787 273.406 287.748 273.406L561.408 272.138C562.33 272.138 563.099 272.907 563.099 273.829C563.099 274.752 562.369 275.521 561.408 275.521L287.748 276.789Z" fill="url(#paint30_radial_419_12911)"/>
<path d="M621.682 302.967C621.644 302.967 621.605 302.967 621.567 302.967L287.632 276.789C286.709 276.712 286.017 275.905 286.094 274.982C286.171 274.06 286.978 273.329 287.901 273.445L621.836 299.623C622.759 299.7 623.45 300.507 623.374 301.43C623.297 302.275 622.566 302.967 621.682 302.967Z" fill="url(#paint31_radial_419_12911)"/>
<path d="M557.833 320.651C557.756 320.651 557.64 320.651 557.563 320.612L287.44 276.751C286.518 276.598 285.902 275.752 286.056 274.829C286.21 273.907 287.056 273.292 287.978 273.445L558.102 317.306C559.024 317.46 559.639 318.306 559.485 319.228C559.37 320.074 558.64 320.651 557.833 320.651Z" fill="url(#paint32_radial_419_12911)"/>
<path d="M612.802 357.669C612.649 357.669 612.533 357.669 612.38 357.631L287.324 276.751C286.402 276.521 285.864 275.598 286.094 274.714C286.325 273.791 287.248 273.253 288.132 273.484L613.187 354.363C614.109 354.594 614.648 355.517 614.417 356.401C614.225 357.17 613.533 357.669 612.802 357.669Z" fill="url(#paint33_radial_419_12911)"/>
<path d="M546.876 364.589C546.684 364.589 546.53 364.551 546.338 364.512L287.17 276.714C286.286 276.406 285.825 275.445 286.094 274.561C286.401 273.677 287.362 273.215 288.247 273.523L547.414 361.322C548.299 361.629 548.76 362.59 548.491 363.474C548.26 364.166 547.607 364.589 546.876 364.589Z" fill="url(#paint34_radial_419_12911)"/>
<path d="M594.966 410.141C594.736 410.141 594.505 410.102 594.313 409.987L287.056 276.636C286.21 276.252 285.826 275.252 286.172 274.406C286.556 273.561 287.556 273.176 288.401 273.522L595.658 406.873C596.504 407.258 596.888 408.257 596.542 409.103C596.273 409.756 595.62 410.141 594.966 410.141Z" fill="url(#paint35_radial_419_12911)"/>
<path d="M528.848 406.104C528.579 406.104 528.31 406.027 528.041 405.912L286.941 276.597C286.133 276.174 285.826 275.136 286.249 274.329C286.672 273.522 287.709 273.214 288.517 273.637L529.617 402.952C530.424 403.374 530.732 404.412 530.309 405.22C530.04 405.796 529.425 406.104 528.848 406.104Z" fill="url(#paint36_radial_419_12911)"/>
<path d="M568.749 458.961C568.442 458.961 568.096 458.884 567.827 458.692L286.825 276.521C286.056 276.022 285.825 274.984 286.325 274.176C286.824 273.408 287.862 273.177 288.67 273.677L569.672 455.848C570.441 456.347 570.671 457.385 570.171 458.193C569.826 458.692 569.287 458.961 568.749 458.961Z" fill="url(#paint37_radial_419_12911)"/>
<path d="M504.169 444.083C503.823 444.083 503.439 443.968 503.131 443.737L286.671 276.443C285.941 275.866 285.787 274.828 286.364 274.059C286.94 273.329 287.978 273.175 288.747 273.752L505.207 441.046C505.937 441.623 506.091 442.661 505.515 443.43C505.169 443.852 504.669 444.083 504.169 444.083Z" fill="url(#paint38_radial_419_12911)"/>
<path d="M534.806 502.822C534.384 502.822 533.999 502.668 533.653 502.361L286.594 276.367C285.902 275.752 285.864 274.676 286.479 273.984C287.094 273.292 288.171 273.254 288.862 273.869L535.921 499.862C536.613 500.477 536.652 501.553 536.037 502.245C535.729 502.63 535.268 502.822 534.806 502.822Z" fill="url(#paint39_radial_419_12911)"/>
<path d="M473.57 477.49C473.109 477.49 472.647 477.297 472.34 476.951L286.479 276.252C285.825 275.56 285.902 274.484 286.556 273.869C287.247 273.254 288.324 273.292 288.939 273.946L474.8 474.645C475.415 475.337 475.377 476.413 474.723 477.028C474.416 477.336 473.993 477.49 473.57 477.49Z" fill="url(#paint40_radial_419_12911)"/>
<path d="M494.098 540.455C493.598 540.455 493.098 540.224 492.752 539.802L286.402 276.136C285.826 275.406 285.941 274.329 286.71 273.753C287.44 273.176 288.517 273.292 289.093 274.06L495.443 537.726C496.02 538.456 495.904 539.532 495.136 540.109C494.828 540.34 494.482 540.455 494.098 540.455Z" fill="url(#paint41_radial_419_12911)"/>
<path d="M437.897 505.398C437.359 505.398 436.821 505.129 436.475 504.629L286.325 276.022C285.825 275.253 286.018 274.215 286.825 273.677C287.594 273.177 288.632 273.369 289.17 274.176L439.319 502.784C439.819 503.553 439.627 504.59 438.82 505.129C438.551 505.282 438.205 505.398 437.897 505.398Z" fill="url(#paint42_radial_419_12911)"/>
<path d="M447.737 570.862C447.122 570.862 446.546 570.555 446.238 569.978L286.248 275.906C285.787 275.099 286.094 274.061 286.94 273.6C287.747 273.139 288.785 273.446 289.246 274.292L449.237 568.364C449.698 569.171 449.39 570.209 448.545 570.67C448.276 570.786 448.007 570.862 447.737 570.862Z" fill="url(#paint43_radial_419_12911)"/>
<path d="M398.072 527.001C397.419 527.001 396.804 526.617 396.535 526.002L286.171 275.791C285.787 274.945 286.171 273.946 287.055 273.561C287.901 273.177 288.9 273.561 289.285 274.407L399.648 524.618C400.033 525.464 399.648 526.463 398.764 526.848C398.533 526.963 398.303 527.001 398.072 527.001Z" fill="url(#paint44_radial_419_12911)"/>
<path d="M396.996 593.197C396.304 593.197 395.65 592.774 395.381 592.044L286.133 275.638C285.825 274.753 286.287 273.792 287.171 273.485C288.055 273.177 289.016 273.639 289.323 274.523L398.572 590.929C398.88 591.813 398.418 592.774 397.534 593.081C397.342 593.197 397.15 593.197 396.996 593.197Z" fill="url(#paint45_radial_419_12911)"/>
<path d="M355.249 541.762C354.48 541.762 353.827 541.262 353.596 540.494L286.094 275.521C285.864 274.637 286.402 273.715 287.324 273.484C288.247 273.253 289.131 273.791 289.362 274.714L356.864 539.686C357.095 540.57 356.556 541.493 355.634 541.724C355.518 541.762 355.403 541.762 355.249 541.762Z" fill="url(#paint46_radial_419_12911)"/>
<path d="M343.218 606.881C342.41 606.881 341.68 606.304 341.565 605.459L286.056 275.368C285.902 274.445 286.518 273.561 287.44 273.407C288.363 273.254 289.247 273.869 289.401 274.791L344.909 604.882C345.063 605.805 344.448 606.689 343.525 606.843C343.41 606.881 343.333 606.881 343.218 606.881Z" fill="url(#paint47_radial_419_12911)"/>
<path d="M310.582 549.259C309.698 549.259 308.967 548.605 308.89 547.721L286.057 275.253C285.98 274.33 286.672 273.523 287.594 273.446C288.517 273.369 289.324 274.061 289.401 274.984L312.235 547.452C312.312 548.375 311.62 549.182 310.697 549.259C310.659 549.259 310.62 549.259 310.582 549.259Z" fill="url(#paint48_radial_419_12911)"/>
<path d="M287.979 611.493C287.056 611.493 286.287 610.724 286.287 609.801L286.057 275.098C286.057 274.175 286.825 273.406 287.748 273.406C288.671 273.406 289.439 274.175 289.439 275.098L289.67 609.801C289.67 610.762 288.901 611.493 287.979 611.493Z" fill="url(#paint49_radial_419_12911)"/>
<path d="M265.26 549.297C265.221 549.297 265.183 549.297 265.106 549.297C264.183 549.22 263.491 548.413 263.568 547.491L286.056 274.984C286.133 274.061 286.94 273.369 287.863 273.446C288.786 273.523 289.477 274.33 289.4 275.253L266.913 547.76C266.874 548.644 266.144 549.297 265.26 549.297Z" fill="url(#paint50_radial_419_12911)"/>
<path d="M232.7 606.957C232.624 606.957 232.508 606.957 232.432 606.919C231.509 606.765 230.894 605.881 231.047 604.997L286.095 274.829C286.248 273.907 287.133 273.292 288.055 273.445C288.978 273.599 289.593 274.483 289.439 275.367L234.392 605.535C234.2 606.381 233.508 606.957 232.7 606.957Z" fill="url(#paint51_radial_419_12911)"/>
<path d="M220.553 541.877C220.399 541.877 220.284 541.877 220.13 541.839C219.208 541.608 218.669 540.686 218.9 539.801L286.056 274.714C286.286 273.83 287.209 273.253 288.093 273.484C289.016 273.714 289.554 274.637 289.323 275.521L222.167 540.608C222.014 541.339 221.322 541.877 220.553 541.877Z" fill="url(#paint52_radial_419_12911)"/>
<path d="M178.922 593.35C178.73 593.35 178.538 593.312 178.384 593.273C177.5 592.966 177.039 592.005 177.346 591.121L286.172 274.561C286.48 273.677 287.441 273.215 288.325 273.523C289.209 273.83 289.67 274.792 289.363 275.676L180.537 592.235C180.268 592.927 179.614 593.35 178.922 593.35Z" fill="url(#paint53_radial_419_12911)"/>
<path d="M177.73 527.154C177.499 527.154 177.268 527.116 177.038 527.001C176.192 526.616 175.808 525.617 176.154 524.771L286.171 274.406C286.555 273.561 287.555 273.176 288.401 273.522C289.246 273.907 289.631 274.906 289.285 275.752L179.267 526.117C178.998 526.77 178.345 527.154 177.73 527.154Z" fill="url(#paint54_radial_419_12911)"/>
<path d="M128.142 571.093C127.873 571.093 127.604 571.016 127.335 570.901C126.527 570.44 126.22 569.44 126.643 568.633L286.249 274.369C286.71 273.562 287.71 273.254 288.555 273.677C289.363 274.138 289.67 275.138 289.247 275.945L129.641 570.209C129.333 570.747 128.719 571.093 128.142 571.093Z" fill="url(#paint55_radial_419_12911)"/>
<path d="M137.867 505.59C137.56 505.59 137.214 505.513 136.945 505.321C136.176 504.821 135.945 503.783 136.445 502.976L286.287 274.176C286.787 273.408 287.863 273.177 288.632 273.677C289.401 274.177 289.631 275.214 289.132 276.022L139.289 504.821C138.982 505.321 138.444 505.59 137.867 505.59Z" fill="url(#paint56_radial_419_12911)"/>
<path d="M81.7434 540.723C81.3975 540.723 81.013 540.608 80.7055 540.377C79.9751 539.8 79.8213 538.763 80.3979 537.994L286.402 274.059C286.979 273.329 288.017 273.175 288.785 273.752C289.516 274.329 289.67 275.366 289.093 276.135L83.0888 540.07C82.7428 540.493 82.2432 540.723 81.7434 540.723Z" fill="url(#paint57_radial_419_12911)"/>
<path d="M102.156 477.719C101.733 477.719 101.348 477.565 101.002 477.258C100.311 476.642 100.272 475.566 100.925 474.874L286.517 273.944C287.171 273.252 288.209 273.214 288.901 273.867C289.593 274.482 289.631 275.559 288.978 276.251L103.386 477.181C103.04 477.565 102.617 477.719 102.156 477.719Z" fill="url(#paint58_radial_419_12911)"/>
<path d="M40.9583 503.129C40.497 503.129 40.0357 502.937 39.7282 502.591C39.1131 501.899 39.1514 500.823 39.8434 500.208L286.633 273.869C287.325 273.254 288.401 273.292 289.016 273.984C289.631 274.676 289.593 275.752 288.901 276.367L42.1115 502.707C41.8039 502.976 41.3811 503.129 40.9583 503.129Z" fill="url(#paint59_radial_419_12911)"/>
<path d="M71.5181 444.391C71.0184 444.391 70.5187 444.16 70.1728 443.737C69.5962 443.007 69.75 441.93 70.4804 441.354L286.71 273.752C287.44 273.175 288.516 273.329 289.093 274.059C289.67 274.79 289.516 275.866 288.785 276.443L72.5561 444.044C72.2486 444.275 71.8641 444.391 71.5181 444.391Z" fill="url(#paint60_radial_419_12911)"/>
<path d="M6.97551 459.346C6.43734 459.346 5.89919 459.077 5.55322 458.577C5.05349 457.808 5.24572 456.732 6.05297 456.232L286.824 273.677C287.593 273.177 288.669 273.408 289.169 274.176C289.669 274.945 289.477 276.022 288.669 276.521L7.89805 459.077C7.62897 459.269 7.28304 459.346 6.97551 459.346Z" fill="url(#paint61_radial_419_12911)"/>
<path d="M46.8009 406.45C46.1858 406.45 45.6092 406.142 45.3016 405.566C44.8403 404.759 45.1481 403.721 45.9938 403.298L286.94 273.637C287.748 273.176 288.786 273.483 289.208 274.329C289.67 275.136 289.362 276.174 288.516 276.597L47.5697 406.258C47.3391 406.373 47.07 406.45 46.8009 406.45Z" fill="url(#paint62_radial_419_12911)"/>
<path d="M-19.3173 410.564C-19.9707 410.564 -20.5857 410.18 -20.8547 409.565C-21.2392 408.719 -20.8548 407.72 -19.9707 407.335L287.094 273.6C287.94 273.215 288.939 273.6 289.324 274.484C289.708 275.33 289.324 276.329 288.44 276.714L-18.6251 410.449C-18.8558 410.526 -19.0866 410.564 -19.3173 410.564Z" fill="url(#paint63_radial_419_12911)"/>
<path d="M28.6953 364.935C28.0033 364.935 27.3497 364.513 27.0806 363.782C26.773 362.898 27.2344 361.937 28.1186 361.63L287.171 273.485C288.055 273.177 289.016 273.639 289.324 274.523C289.631 275.407 289.17 276.368 288.286 276.676L29.2332 364.82C29.041 364.897 28.8875 364.935 28.6953 364.935Z" fill="url(#paint64_radial_419_12911)"/>
<path d="M-37.1927 358.092C-37.9615 358.092 -38.6535 357.592 -38.8457 356.823C-39.0763 355.901 -38.5381 355.017 -37.6155 354.786L287.324 273.484C288.208 273.253 289.131 273.791 289.362 274.714C289.592 275.637 289.054 276.521 288.132 276.751L-36.8084 358.054C-36.9237 358.092 -37.0774 358.092 -37.1927 358.092Z" fill="url(#paint65_radial_419_12911)"/>
<path d="M17.7019 320.997C16.8946 320.997 16.1643 320.42 16.0489 319.574C15.8952 318.652 16.5102 317.806 17.4328 317.652L287.479 273.445C288.402 273.292 289.247 273.907 289.401 274.829C289.555 275.752 288.94 276.598 288.017 276.751L17.971 320.958C17.8557 320.997 17.7787 320.997 17.7019 320.997Z" fill="url(#paint66_radial_419_12911)"/>
<path d="M-46.1875 303.392C-47.0717 303.392 -47.802 302.738 -47.8789 301.854C-47.9558 300.931 -47.2638 300.124 -46.3412 300.047L287.555 273.446C288.478 273.369 289.285 274.061 289.362 274.984C289.439 275.906 288.747 276.714 287.824 276.791L-46.0721 303.392C-46.0721 303.392 -46.1106 303.392 -46.1875 303.392Z" fill="url(#paint67_radial_419_12911)"/>
<path d="M287.748 276.79L14.0879 275.867C13.1653 275.867 12.3965 275.098 12.3965 274.176C12.3965 273.253 13.1653 272.484 14.0879 272.484L287.748 273.407C288.67 273.407 289.439 274.176 289.439 275.098C289.439 276.021 288.67 276.79 287.748 276.79Z" fill="url(#paint68_radial_419_12911)"/>
<path d="M287.748 276.79C287.709 276.79 287.632 276.79 287.594 276.79L-46.1488 247.96C-47.0714 247.883 -47.7634 247.075 -47.6865 246.153C-47.6097 245.23 -46.8023 244.538 -45.8412 244.615L287.902 273.446C288.824 273.523 289.516 274.33 289.439 275.253C289.362 276.137 288.593 276.79 287.748 276.79Z" fill="url(#paint69_radial_419_12911)"/>
<path d="M287.748 276.789C287.671 276.789 287.556 276.789 287.479 276.751L17.7399 230.737C16.8173 230.583 16.2023 229.699 16.3561 228.777C16.5098 227.854 17.394 227.239 18.3166 227.393L288.055 273.406C288.978 273.56 289.593 274.444 289.439 275.367C289.247 276.213 288.555 276.789 287.748 276.789Z" fill="url(#paint70_radial_419_12911)"/>
<path d="M287.747 276.79C287.593 276.79 287.478 276.79 287.324 276.752L-37.0773 193.297C-37.9614 193.066 -38.5381 192.144 -38.3074 191.26C-38.0768 190.375 -37.154 189.799 -36.2315 190.03L288.17 273.484C289.054 273.715 289.631 274.638 289.4 275.522C289.169 276.291 288.478 276.79 287.747 276.79Z" fill="url(#paint71_radial_419_12911)"/>
<path d="M287.747 276.79C287.555 276.79 287.363 276.751 287.209 276.713L28.7717 186.839C27.8875 186.531 27.4264 185.57 27.7339 184.686C28.0414 183.802 29.0025 183.34 29.8866 183.648L288.324 273.523C289.208 273.83 289.669 274.791 289.362 275.675C289.093 276.367 288.439 276.79 287.747 276.79Z" fill="url(#paint72_radial_419_12911)"/>
<path d="M287.748 276.79C287.517 276.79 287.286 276.751 287.056 276.636L-19.125 140.863C-19.9707 140.479 -20.3552 139.479 -19.9708 138.634C-19.5864 137.788 -18.5868 137.404 -17.7411 137.788L288.439 273.561C289.285 273.945 289.67 274.945 289.285 275.79C289.016 276.444 288.401 276.79 287.748 276.79Z" fill="url(#paint73_radial_419_12911)"/>
<path d="M287.747 276.79C287.478 276.79 287.209 276.713 286.94 276.598L46.8777 145.361C46.0705 144.9 45.763 143.9 46.2243 143.055C46.6856 142.247 47.6849 141.94 48.5306 142.401L288.593 273.638C289.401 274.099 289.708 275.099 289.247 275.944C288.901 276.482 288.324 276.79 287.747 276.79Z" fill="url(#paint74_radial_419_12911)"/>
<path d="M287.747 276.789C287.44 276.789 287.094 276.712 286.825 276.519L7.28339 92.119C6.51457 91.6193 6.28394 90.543 6.82212 89.7742C7.32185 89.0054 8.39813 88.7746 9.16695 89.3128L288.708 273.713C289.477 274.213 289.708 275.289 289.169 276.058C288.823 276.519 288.285 276.789 287.747 276.789Z" fill="url(#paint75_radial_419_12911)"/>
<path d="M287.747 276.79C287.401 276.79 287.017 276.675 286.709 276.444L71.5947 107.42C70.8643 106.843 70.749 105.767 71.3256 105.037C71.9022 104.306 72.9785 104.191 73.7089 104.768L288.824 273.792C289.554 274.368 289.669 275.445 289.093 276.175C288.747 276.559 288.247 276.79 287.747 276.79Z" fill="url(#paint76_radial_419_12911)"/>
<path d="M287.748 276.79C287.325 276.79 286.94 276.636 286.594 276.328L41.3423 48.3745C40.6503 47.721 40.6118 46.6831 41.2653 45.9911C41.9188 45.2992 42.9567 45.2608 43.6486 45.9143L288.901 273.868C289.593 274.522 289.631 275.559 288.978 276.251C288.632 276.636 288.209 276.79 287.748 276.79Z" fill="url(#paint77_radial_419_12911)"/>
<path d="M281.905 683.917C227.473 683.917 174.655 673.269 124.951 652.242C76.9387 631.945 33.8081 602.884 -3.21036 565.904C-40.2288 528.886 -69.3284 485.793 -89.6251 437.819C-110.652 388.154 -121.3 335.375 -121.3 280.981C-121.3 226.587 -110.652 173.808 -89.6251 124.143C-69.3284 76.1686 -40.2288 33.0766 -3.21036 -3.94186C33.8081 -40.9603 76.9387 -69.9832 124.951 -90.2799C174.655 -111.307 227.473 -121.955 281.905 -121.955C336.337 -121.955 389.155 -111.307 438.858 -90.2799C486.871 -69.9832 530.002 -40.9219 567.02 -3.94186C604.039 33.0766 633.138 76.1686 653.435 124.143C674.462 173.808 685.11 226.587 685.11 280.981C685.11 335.375 674.462 388.154 653.435 437.819C633.138 485.793 604.039 528.886 567.02 565.904C530.002 602.923 486.871 631.945 438.858 652.242C389.155 673.269 336.337 683.917 281.905 683.917ZM281.905 -118.572C175.078 -118.572 74.6706 -77.0178 -0.827055 -1.55855C-76.3632 73.9007 -117.956 174.231 -117.956 280.981C-117.956 387.693 -76.3632 488.023 -0.827055 563.521C74.7091 638.98 175.117 680.534 281.905 680.534C388.693 680.534 489.139 638.98 564.637 563.521C640.173 488.062 681.766 387.731 681.766 280.981C681.766 174.27 640.173 73.9391 564.637 -1.55855C489.139 -76.9794 388.693 -118.572 281.905 -118.572Z" fill="url(#paint78_linear_419_12911)"/>
<path d="M281.905 648.936C183.535 648.936 91.0852 610.649 21.5074 541.149C-48.032 471.648 -86.3574 379.236 -86.3574 280.981C-86.3574 182.688 -48.0704 90.3152 21.5074 20.8143C91.0467 -48.6866 183.535 -86.9736 281.905 -86.9736C380.275 -86.9736 472.725 -48.6866 542.303 20.8143C611.842 90.3152 650.168 182.727 650.168 280.981C650.168 379.274 611.881 471.648 542.303 541.149C472.725 610.688 380.275 648.936 281.905 648.936ZM281.905 -83.5908C184.458 -83.5908 92.8152 -45.6498 23.8909 23.1976C-45.0334 92.045 -82.9746 183.611 -82.9746 280.981C-82.9746 378.352 -45.0334 469.918 23.8909 538.765C92.8152 607.613 184.42 645.554 281.905 645.554C379.391 645.554 470.995 607.613 539.92 538.765C608.844 469.918 646.785 378.352 646.785 280.981C646.785 183.611 608.844 92.045 539.92 23.1976C470.995 -45.6498 379.353 -83.5908 281.905 -83.5908Z" fill="url(#paint79_linear_419_12911)"/>
<path d="M281.905 616.491C192.223 616.491 107.884 581.587 44.4951 518.236C-18.9321 454.886 -53.8364 370.624 -53.8364 281.019C-53.8364 191.413 -18.8937 107.151 44.4951 43.8005C107.922 -19.5499 192.223 -54.4541 281.905 -54.4541C371.588 -54.4541 455.926 -19.5499 519.315 43.8005C582.743 107.151 617.647 191.413 617.647 281.019C617.647 370.624 582.704 454.886 519.315 518.236C455.926 581.587 371.588 616.491 281.905 616.491ZM281.905 -51.1481C193.107 -51.1481 109.652 -16.5899 46.8784 46.1454C-15.8953 108.881 -50.4921 192.297 -50.4921 280.98C-50.4921 369.701 -15.9338 453.118 46.8784 515.815C109.652 578.55 193.146 613.108 281.905 613.108C370.704 613.108 454.158 578.55 516.932 515.815C579.706 453.079 614.303 369.663 614.303 280.98C614.303 192.259 579.744 108.842 516.932 46.1454C454.158 -16.5899 370.704 -51.1481 281.905 -51.1481Z" fill="url(#paint80_linear_419_12911)"/>
<path d="M557.832 21.3127C557.832 26.1562 555.949 30.7308 552.489 34.152C549.068 37.6117 544.493 39.4952 539.612 39.4952C534.768 39.4952 530.194 37.6117 526.734 34.152C523.274 30.7308 521.391 26.1562 521.391 21.3127C521.391 16.4307 523.274 11.8563 526.734 8.43512C530.155 4.97545 534.73 3.0918 539.612 3.0918C544.493 3.0918 549.068 4.97545 552.489 8.43512C555.91 11.8948 557.832 16.4691 557.832 21.3127Z" fill="#191919"/>
<path d="M555.295 5.62931C551.105 1.43927 545.531 -0.867188 539.573 -0.867188C533.653 -0.867188 528.079 1.43927 523.889 5.62931C519.699 9.81936 517.393 15.3932 517.393 21.3131C517.393 27.233 519.699 32.8069 523.889 36.997C528.079 41.187 533.653 43.4935 539.573 43.4935C545.493 43.4935 551.067 41.187 555.295 36.997C559.485 32.8069 561.792 27.233 561.792 21.3131C561.792 15.3932 559.485 9.81936 555.295 5.62931ZM526.734 34.1524C523.274 30.7312 521.391 26.1566 521.391 21.3131C521.391 16.4311 523.274 11.8568 526.734 8.43553C530.155 4.97586 534.729 3.09221 539.611 3.09221C544.493 3.09221 549.068 4.97586 552.489 8.43553C555.949 11.8568 557.832 16.4311 557.832 21.3131C557.832 26.1566 555.949 30.7312 552.489 34.1524C549.068 37.6121 544.493 39.4956 539.611 39.4956C534.729 39.4956 530.155 37.6121 526.734 34.1524Z" fill="url(#paint81_linear_419_12911)"/>
<path d="M539.612 556.679C534.768 556.679 530.194 554.795 526.734 551.336C523.274 547.914 521.391 543.34 521.391 538.458C521.391 533.614 523.274 529.04 526.734 525.619C530.155 522.159 534.73 520.275 539.612 520.275C544.493 520.275 549.068 522.159 552.489 525.619C555.949 529.04 557.832 533.614 557.832 538.458C557.832 543.34 555.949 547.914 552.489 551.336C549.029 554.795 544.455 556.679 539.612 556.679Z" fill="#191919"/>
<path d="M555.295 554.179C559.485 549.989 561.792 544.415 561.792 538.495C561.792 532.575 559.485 527.001 555.295 522.811C551.105 518.621 545.531 516.314 539.573 516.314C533.653 516.314 528.079 518.621 523.889 522.811C519.699 527.001 517.393 532.575 517.393 538.495C517.393 544.415 519.699 549.989 523.889 554.179C528.079 558.369 533.653 560.675 539.573 560.675C545.531 560.675 551.105 558.369 555.295 554.179ZM526.734 525.617C530.155 522.158 534.729 520.274 539.611 520.274C544.493 520.274 549.068 522.158 552.489 525.617C555.949 529.039 557.832 533.613 557.832 538.456C557.832 543.338 555.949 547.913 552.489 551.334C549.068 554.794 544.493 556.677 539.611 556.677C534.768 556.677 530.194 554.794 526.734 551.334C523.274 547.913 521.391 543.338 521.391 538.456C521.391 533.651 523.274 529.077 526.734 525.617Z" fill="url(#paint82_linear_419_12911)"/>
<path d="M22.0065 3.13086C26.8501 3.13086 31.4247 5.0144 34.8843 8.47407C38.344 11.8953 40.2277 16.4698 40.2277 21.3517C40.2277 26.1953 38.344 30.7697 34.8843 34.1909C31.4631 37.6506 26.8885 39.5343 22.0065 39.5343C17.1246 39.5343 12.5502 37.6506 9.12897 34.1909C5.6693 30.7697 3.78564 26.1953 3.78564 21.3517C3.78564 16.4698 5.6693 11.8953 9.12897 8.47407C12.5886 5.0144 17.163 3.13086 22.0065 3.13086Z" fill="#191919"/>
<path d="M6.32316 5.62931C2.13312 9.81936 -0.17334 15.3932 -0.17334 21.3131C-0.17334 27.233 2.13312 32.8069 6.32316 36.997C10.5132 41.187 16.087 43.4935 22.0453 43.4935C27.9652 43.4935 33.5392 41.187 37.7292 36.997C41.9192 32.8069 44.2257 27.233 44.2257 21.3131C44.2257 15.3932 41.9192 9.81936 37.7292 5.62931C33.5392 1.43927 27.9652 -0.867188 22.0453 -0.867188C16.087 -0.867188 10.5132 1.43927 6.32316 5.62931ZM34.8846 34.1524C31.4634 37.6121 26.8888 39.4956 22.0068 39.4956C17.1248 39.4956 12.5505 37.6121 9.12926 34.1524C5.66959 30.7312 3.78594 26.1566 3.78594 21.3131C3.78594 16.4311 5.66959 11.8568 9.12926 8.43553C12.5505 4.97586 17.1248 3.09221 22.0068 3.09221C26.8504 3.09221 31.425 4.97586 34.8846 8.43553C38.3443 11.8568 40.2279 16.4311 40.2279 21.3131C40.2279 26.1566 38.3443 30.7312 34.8846 34.1524Z" fill="url(#paint83_linear_419_12911)"/>
<path d="M3.82471 542.494C3.82471 537.65 5.70836 533.076 9.16803 529.655C12.5893 526.195 17.1636 524.312 22.0456 524.312C26.8891 524.312 31.4637 526.195 34.9234 529.655C38.3831 533.076 40.2665 537.65 40.2665 542.494C40.2665 547.376 38.3831 551.951 34.9234 555.372C31.5022 558.831 26.9276 560.715 22.0456 560.715C17.1636 560.715 12.5893 558.831 9.16803 555.372C5.70836 551.912 3.82471 547.337 3.82471 542.494Z" fill="#191919"/>
<path d="M6.32316 558.178C10.5132 562.368 16.087 564.674 22.0453 564.674C27.9652 564.674 33.5392 562.368 37.7292 558.178C41.9192 553.987 44.2257 548.414 44.2257 542.494C44.2257 536.574 41.9192 531 37.7292 526.81C33.5392 522.62 27.9652 520.313 22.0453 520.313C16.1254 520.313 10.5516 522.62 6.32316 526.81C2.13312 531 -0.17334 536.574 -0.17334 542.494C-0.17334 548.414 2.13312 553.987 6.32316 558.178ZM34.8846 529.616C38.3443 533.037 40.2279 537.612 40.2279 542.455C40.2279 547.337 38.3443 551.912 34.8846 555.333C31.4634 558.793 26.8888 560.676 22.0068 560.676C17.1248 560.676 12.5505 558.793 9.12926 555.333C5.66959 551.912 3.78594 547.337 3.78594 542.455C3.78594 537.612 5.66959 533.037 9.12926 529.616C12.5505 526.156 17.1248 524.273 22.0068 524.273C26.8888 524.311 31.4634 526.195 34.8846 529.616Z" fill="url(#paint84_linear_419_12911)"/>
<path d="M574.515 -61.4882C588.354 -75.3269 610.803 -75.3269 624.642 -61.4882C638.481 -47.6495 638.481 -25.2385 624.642 -11.3999C610.803 2.43881 588.354 2.43881 574.515 -11.3999C560.677 -25.2001 560.677 -47.6495 574.515 -61.4882Z" fill="#191919"/>
<path d="M599.579 0.670801C589.661 0.670801 580.32 -3.17322 573.324 -10.2079C566.327 -17.2041 562.445 -26.5453 562.445 -36.463C562.445 -46.3807 566.327 -55.6833 573.324 -62.718C580.32 -69.7142 589.661 -73.5967 599.579 -73.5967C609.496 -73.5967 618.837 -69.7527 625.834 -62.718C632.83 -55.7218 636.712 -46.3807 636.712 -36.463C636.712 -26.5453 632.83 -17.2425 625.834 -10.2079C618.837 -3.17322 609.496 0.670801 599.579 0.670801ZM599.579 -70.1755C590.545 -70.1755 582.088 -66.6774 575.707 -60.2962C569.326 -53.915 565.828 -45.4581 565.828 -36.4245C565.828 -27.4294 569.326 -18.934 575.707 -12.5528C582.088 -6.17167 590.545 -2.67353 599.579 -2.67353C608.612 -2.67353 617.069 -6.17167 623.45 -12.5528C629.831 -18.934 633.33 -27.3909 633.33 -36.4245C633.33 -45.4197 629.831 -53.915 623.45 -60.2962C617.069 -66.6774 608.612 -70.1755 599.579 -70.1755Z" fill="url(#paint85_linear_419_12911)"/>
<path d="M-39.4221 639.135C-48.917 639.135 -58.4504 635.521 -65.6773 628.294C-80.1694 613.84 -80.1694 590.276 -65.6773 575.823C-51.1851 561.369 -27.6208 561.369 -13.167 575.823C1.32513 590.276 1.32513 613.84 -13.167 628.294C-20.3939 635.521 -29.8888 639.135 -39.4221 639.135ZM-39.4221 568.327C-48.0713 568.327 -56.7206 571.633 -63.294 578.206C-76.4407 591.353 -76.4407 612.764 -63.294 625.911C-50.1472 639.058 -28.6971 639.058 -15.5503 625.911C-2.4036 612.764 -2.4036 591.353 -15.5503 578.206C-22.1237 571.594 -30.773 568.327 -39.4221 568.327Z" fill="url(#paint86_linear_419_12911)"/>
<path d="M281.905 549.297C210.174 549.297 142.749 521.389 92.0459 470.724C41.3425 420.06 13.396 352.673 13.396 281.019C13.396 209.366 41.3425 141.979 92.0459 91.3142C142.749 40.6492 210.174 12.7412 281.905 12.7412C353.635 12.7412 421.06 40.6492 471.764 91.3142C522.467 141.979 550.414 209.366 550.414 281.019C550.414 352.673 522.467 420.06 471.764 470.724C421.06 521.389 353.635 549.297 281.905 549.297ZM94.4292 93.659C44.3409 143.709 16.7788 210.211 16.7788 280.981C16.7788 351.75 44.3409 418.253 94.4292 468.303C144.518 518.353 211.097 545.915 281.905 545.915C352.713 545.915 419.292 518.353 469.38 468.303C519.469 418.253 547.031 351.75 547.031 280.981C547.031 210.211 519.469 143.709 469.38 93.659C419.292 43.6091 352.713 16.0855 281.905 16.0855C211.097 16.0855 144.518 43.6475 94.4292 93.659Z" fill="url(#paint87_linear_419_12911)"/>
<path d="M242.12 370.768H236.523V381.356L242.12 384.281V370.768Z" fill="#191919"/>
<path d="M239.545 392.93V384.631L236.874 383.232V391.341L239.545 392.93Z" fill="#191919"/>
<path d="M280.371 409.209V395.409L274.902 394.773V408.319L280.371 409.209Z" fill="#191919"/>
<path d="M280.371 374.774L271.118 373.216V392.834L280.371 393.915V374.774Z" fill="#191919"/>
<path d="M325.745 370.768H319.576V384.567L325.745 381.356V370.768Z" fill="#191919"/>
<path d="M325.363 391.341V383.232L322.152 384.918V393.28L325.363 391.341Z" fill="#191919"/>
<path d="M250.769 370.768H243.647V385.044L250.769 388.764V370.768Z" fill="#191919"/>
<path d="M269.624 372.994L261.325 371.595V391.722L269.624 392.676V372.994Z" fill="#191919"/>
<path d="M273.408 394.615L266.126 393.788V406.856L273.408 408.065V394.615Z" fill="#191919"/>
<path d="M247.144 388.574L241.039 385.395V393.852L247.144 397.541V388.574Z" fill="#191919"/>
<path d="M327.97 370.386V378.717L338.559 365.013L344.186 341.929H336.396L327.398 352.994L331.881 364.949L327.97 370.386Z" fill="#191919"/>
<path d="M255.347 392.548L254.807 392.485L254.52 392.421L248.638 389.337V398.431L255.347 402.501V392.548Z" fill="#191919"/>
<path d="M259.831 371.34L256.302 370.768H252.264V389.527L255.094 391.022L259.831 391.562V371.34Z" fill="#191919"/>
<path d="M264.632 406.602V393.598L256.873 392.739V403.296H256.651L261.134 406.03L264.632 406.602Z" fill="#191919"/>
<path d="M345.395 129.242L281.484 111.022L218.114 129.083L281.866 171.785L345.395 129.242Z" fill="#191919"/>
<path d="M281.294 173.534L202.725 226.157L205.427 241.229L205.205 241.801V261.451L245.999 245.903L246.349 246.125L280.944 207.143L281.294 173.534Z" fill="#191919"/>
<path d="M294.998 260.497V283.263L319.735 299.257L347.366 301.419L355.729 291.689V262.914L315.729 247.651L294.998 260.497Z" fill="#191919"/>
<path d="M361.261 224.95L368.828 182.788L346.698 129.72L282.883 172.454L361.261 224.95Z" fill="#191919"/>
<path d="M282.438 173.502L282.056 207.143L315.824 245.266L356.364 260.751L358.431 241.483L358.336 241.228L361.038 226.157L282.438 173.502Z" fill="#191919"/>
<path d="M306.222 369.273H325.999L329.338 364.599L324.823 352.58L334.393 340.815L293.471 330.259L306.222 369.273Z" fill="#191919"/>
<path d="M205.777 263.645V292.421L214.107 302.182L241.77 299.988L266.508 283.995V261.26L245.777 248.383L205.777 263.645Z" fill="#191919"/>
<path d="M203.519 293.28V262.12L204.091 261.897V244.854L184.632 297.573L184.95 298.304L172.931 311.85L177.859 325.904L195.92 341.07L212.708 303.996L203.519 293.28Z" fill="#191919"/>
<path d="M203.488 242.151L172.772 268.638L183.806 295.506L203.488 242.151Z" fill="#191919"/>
<path d="M202.502 224.95L280.848 172.454L217.065 129.72L194.935 182.788L202.502 224.95Z" fill="#191919"/>
<path d="M221.611 366.062L214.234 341.929L196.842 342.724L206.73 415.537L221.643 366.094L221.611 366.062Z" fill="#191919"/>
<path d="M193.376 182.628L215.03 130.673L172.709 182.469L164.632 221.992L201.071 225.553L193.376 182.628Z" fill="#191919"/>
<path d="M201.293 226.697L164.664 223.104L172.518 267.365L203.742 240.434L201.293 226.697Z" fill="#191919"/>
<path d="M370.323 182.851L362.66 225.553L398.367 221.992L390.291 182.469L349.496 132.549L370.386 182.628L370.323 182.851Z" fill="#191919"/>
<path d="M281.23 410.831L281.135 410.736L281.008 410.831L261.771 407.652L259.259 452.071H303.011L301.23 407.524L281.23 410.831Z" fill="#191919"/>
<path d="M302.311 407.016L304.123 452.008L355.506 419.003L326.19 392.58L302.311 407.016Z" fill="#191919"/>
<path d="M260.499 407.365L239.64 394.742H239.545V394.679L236.047 392.58L207.494 419.003L258.146 451.531L260.658 407.429L260.499 407.365Z" fill="#191919"/>
<path d="M216.651 342.183L223.646 365.013L234.266 378.717V370.386L230.355 364.949L234.838 352.994L225.872 341.929L216.651 342.183Z" fill="#191919"/>
<path d="M235.379 383.836L222.502 367.175L207.271 417.668L235.379 391.69V383.836Z" fill="#191919"/>
<path d="M237.414 352.58L232.899 364.599L236.238 369.273H256.047L269.497 330.259L227.971 340.974L237.414 352.58Z" fill="#191919"/>
<path d="M326.857 383.837V391.659L355.697 417.668L339.608 367.366L326.857 383.837Z" fill="#191919"/>
<path d="M379.417 294.965L390.26 268.574L390.8 265.585L360.18 241.96L379.417 294.965Z" fill="#191919"/>
<path d="M362.469 226.697L359.989 240.402L391.023 264.344L398.336 223.104L362.469 226.697Z" fill="#191919"/>
<path d="M340.657 366.03L340.435 366.284L356.237 415.696L366.158 342.691L346.508 341.801L340.657 366.03Z" fill="#191919"/>
<path d="M280.562 328.796H280.657L272.867 321.706C272.708 321.579 272.644 321.388 272.708 321.197L272.74 321.102H267.017L280.594 345.33V328.796H280.562Z" fill="#191919"/>
<path d="M378.559 297.032L359.29 243.9L357.446 261.166L357.986 261.357V292.517L348.352 303.741L367.557 340.657L385.141 325.903L390.069 311.849L378.05 298.304L378.559 297.032Z" fill="#191919"/>
<path d="M319.003 301.451L292.74 284.472V259.257L314.679 245.649L281.484 208.192L247.303 246.698L268.765 260.021V285.235L242.501 302.183L213.757 304.472L196.905 341.61L213.885 340.815L213.63 339.988L226.921 339.671L227.207 340.02L268.956 329.241L264.155 320.688L281.102 272.294L298.845 320.688L293.852 329.209L335.188 339.861L335.315 339.671H347.048L346.794 340.688L366.444 341.578L366.666 341.388L347.016 303.645L319.003 301.451Z" fill="#191919"/>
<path d="M305.077 369.4L292.644 331.276L281.102 350.927L270.228 331.531L257.191 369.4L281.134 373.375L305.077 369.4Z" fill="#191919"/>
<path d="M300.372 371.689L292.073 373.089V392.739L300.372 391.785V371.689Z" fill="#191919"/>
<path d="M295.57 393.852L288.289 394.678V408.16L295.57 406.952V393.852Z" fill="#191919"/>
<path d="M304.759 403.804L304.822 392.803L297.064 393.661V406.698L301.102 406.03L304.759 403.804Z" fill="#191919"/>
<path d="M309.433 389.814V370.768H305.935L301.865 371.435V391.626L307.143 391.022L309.433 389.814Z" fill="#191919"/>
<path d="M286.795 394.838L281.866 395.41V409.21L286.795 408.383V394.838Z" fill="#191919"/>
<path d="M290.578 373.312L281.866 374.774V393.916L290.578 392.898V373.312Z" fill="#191919"/>
<path d="M272.868 320.021V320.275L280.34 281.261L266.763 320.021H272.868Z" fill="#191919"/>
<path d="M320.657 385.681L314.552 388.86V397.859L320.657 394.17V385.681Z" fill="#191919"/>
<path d="M290.292 321.134V321.229C290.324 321.42 290.26 321.611 290.133 321.738L281.898 329.242C281.834 329.305 281.771 329.337 281.707 329.369V345.522L296.015 321.166H290.292V321.134Z" fill="#191919"/>
<path d="M283.36 285.013L290.069 320.021H296.206L283.36 285.013Z" fill="#191919"/>
<path d="M273.853 321.102L281.484 328.065L289.147 321.102L281.484 281.197L273.853 321.102Z" fill="#191919"/>
<path d="M313.058 389.623L307.717 392.421L307.462 392.485L306.317 392.612L306.254 402.882L313.058 398.78V389.623Z" fill="#191919"/>
<path d="M318.05 370.768H310.928V389.051L318.05 385.33V370.768Z" fill="#191919"/>
<path d="M400.721 222.406L392.39 181.452L348.511 127.78L281.802 108.765L281.484 108.67L214.489 127.78L170.61 181.452L162.279 222.406L170.578 269.083L170.61 269.21L182.375 297.89L170.419 311.34L175.984 327.238L194.616 342.882L205.141 420.148L258.336 454.329H304.727L357.923 420.148L368.415 342.882L387.08 327.238L392.644 311.34L380.689 297.89L392.422 269.305L400.721 222.406ZM390.291 182.469L398.336 221.992L362.66 225.554L370.323 182.851L370.355 182.628L349.465 132.549L390.291 182.469ZM368.829 182.787L361.261 224.918L282.883 172.422L346.698 129.687L368.829 182.787ZM358.431 241.484L356.364 260.752L315.824 245.299L282.056 207.143L282.406 173.503L361.007 226.158L358.304 241.229L358.431 241.484ZM355.729 262.914V291.69L347.366 301.42L319.735 299.226L294.997 283.232V260.498L315.729 247.62L355.729 262.914ZM281.484 111.023L345.395 129.242L281.866 171.786L218.114 129.083L281.484 111.023ZM245.999 245.903L205.204 261.452V241.77L205.427 241.197L202.724 226.126L281.325 173.503L280.975 207.112L246.381 246.094L245.999 245.903ZM266.508 261.261V283.995L241.77 299.989L214.139 302.183L205.777 292.453V263.677L245.777 248.415L266.508 261.261ZM280.848 172.454L202.47 224.949L194.934 182.787L217.064 129.719L280.848 172.454ZM172.709 182.469L215.03 130.673L193.376 182.628L201.071 225.554L164.632 221.992L172.709 182.469ZM164.664 223.105L201.293 226.698L203.774 240.434L172.549 267.366L164.664 223.105ZM172.772 268.638L203.487 242.151L183.805 295.506L172.772 268.638ZM177.86 325.903L172.931 311.849L184.95 298.336L184.632 297.572L204.06 244.854V261.897L203.487 262.119V293.28L212.708 304.027L195.92 341.102L177.86 325.903ZM196.842 342.723L214.235 341.928L221.643 366.062L221.675 366.094L206.762 415.537L196.842 342.723ZM324.823 352.58L329.338 364.599L325.999 369.273H306.222L293.503 330.259L334.425 340.816L324.823 352.58ZM336.396 341.928H344.187L338.59 365.044L328.002 378.717V370.386L331.881 364.949L327.398 352.994L336.396 341.928ZM319.576 384.567V370.768H325.745V381.356L319.576 384.567ZM325.363 383.232V391.308L322.152 393.248V384.885L325.363 383.232ZM271.118 392.834V373.216L280.371 374.774V393.916L271.118 392.834ZM280.371 395.41V409.21L274.902 408.287V394.774L280.371 395.41ZM236.524 381.356V370.768H242.152V384.281L236.524 381.356ZM239.545 384.631V392.93L236.874 391.308V383.232L239.545 384.631ZM241.039 385.394L247.144 388.574V397.54L241.039 393.852V385.394ZM243.646 385.044V370.768H250.769V388.764L243.646 385.044ZM248.638 389.337L254.521 392.389L254.775 392.485L255.347 392.548V402.501L248.638 398.431V389.337ZM255.093 391.022L252.231 389.528V370.768H256.301L259.799 371.34V391.531L255.093 391.022ZM256.874 403.295V392.739L264.632 393.629V406.602L261.134 406.03L256.619 403.295H256.874ZM261.325 391.722V371.594L269.624 372.962V392.644L261.325 391.722ZM266.126 393.788L273.408 394.615V408.065L266.126 406.857V393.788ZM257.191 369.4L270.228 331.563L281.102 350.927L292.645 331.277L305.077 369.4L281.134 373.375L257.191 369.4ZM281.866 395.41L286.794 394.838V408.383L281.866 409.21V395.41ZM281.866 393.916V374.774L290.578 373.311V392.898L281.866 393.916ZM288.288 394.679L295.57 393.852V406.952L288.288 408.16V394.679ZM292.072 392.739V373.089L300.371 371.722V391.817L292.072 392.739ZM297.064 393.661L304.823 392.771L304.727 403.804L301.071 405.998L297.032 406.666V393.661H297.064ZM301.866 391.626V371.435L305.935 370.768H309.465V389.814L307.175 391.022L301.866 391.626ZM306.317 392.612L307.43 392.485L307.684 392.389L313.026 389.623V398.78L306.222 402.914L306.317 392.612ZM310.928 389.051V370.768H318.05V385.331L310.928 389.051ZM314.552 388.86L320.657 385.68V394.17L314.552 397.858V388.86ZM281.675 345.49V329.337C281.738 329.305 281.802 329.273 281.866 329.21L290.101 321.706C290.26 321.579 290.323 321.388 290.26 321.197V321.102H295.951L281.675 345.49ZM290.069 320.021L283.36 285.013L296.206 320.021H290.069ZM289.147 321.102L281.516 328.033L273.885 321.102L281.516 281.197L289.147 321.102ZM272.867 320.275V319.989H266.762L280.339 281.229L272.867 320.275ZM272.708 321.134L272.676 321.229C272.645 321.42 272.708 321.611 272.835 321.738L280.626 328.828H280.53V345.394L266.953 321.165H272.708V321.134ZM256.047 369.273H236.238L232.899 364.599L237.414 352.58L227.971 340.974L269.497 330.259L256.047 369.273ZM234.839 352.994L230.355 364.949L234.234 370.386V378.717L223.614 365.013L216.619 342.183L225.84 341.96L234.839 352.994ZM222.502 367.175L235.379 383.836V391.658L207.271 417.636L222.502 367.175ZM258.145 451.531L207.462 418.971L236.047 392.548L239.545 394.647V394.71H239.64L260.498 407.334L260.657 407.397L258.145 451.531ZM259.258 452.071L261.77 407.652L281.007 410.863L281.134 410.768L281.261 410.863L301.23 407.524L303.01 452.071H259.258ZM304.123 452.008L302.311 407.047L326.19 392.58L355.506 419.003L304.123 452.008ZM326.857 391.658V383.836L339.608 367.366L355.697 417.667L326.857 391.658ZM356.237 415.696L340.435 366.284L340.625 366.03L346.508 341.833L366.158 342.723L356.237 415.696ZM366.444 341.579L346.794 340.688L347.048 339.671H335.347L335.22 339.862L293.885 329.21L298.877 320.688L281.102 272.294L264.155 320.688L268.956 329.273L227.208 340.021L226.921 339.671L213.63 339.989L213.885 340.816L196.906 341.61L213.758 304.472L242.502 302.215L268.734 285.235V260.021L247.303 246.73L281.484 208.224L314.648 245.681L292.74 259.29V284.504L318.972 301.483L347.016 303.709L366.667 341.451L366.444 341.579ZM390.069 311.849L385.14 325.903L367.557 340.657L348.352 303.741L357.986 292.517V261.356L357.446 261.166L359.29 243.9L378.558 297.032L378.018 298.336L390.069 311.849ZM390.259 268.574L379.417 294.965L360.18 241.96L390.768 265.585L390.259 268.574ZM359.989 240.402L362.438 226.698L398.304 223.105L390.991 264.313L359.989 240.402Z" fill="white"/>
</g>
<defs>
<linearGradient id="paint0_linear_419_12911" x1="663.117" y1="280.991" x2="-98.5265" y2="256.525" gradientUnits="userSpaceOnUse">
<stop stop-color="#D7B676"/>
<stop offset="0.0189" stop-color="#CFAF72"/>
<stop offset="0.2083" stop-color="#826F4C"/>
<stop offset="0.3646" stop-color="#494131"/>
<stop offset="0.4801" stop-color="#26241F"/>
<stop offset="0.5421" stop-color="#191919"/>
<stop offset="0.5968" stop-color="#25231F"/>
<stop offset="0.6952" stop-color="#443D2E"/>
<stop offset="0.8261" stop-color="#776748"/>
<stop offset="0.9828" stop-color="#BDA06A"/>
<stop offset="1" stop-color="#C5A76E"/>
</linearGradient>
<linearGradient id="paint1_linear_419_12911" x1="-244.274" y1="584.781" x2="808.079" y2="-22.7951" gradientUnits="userSpaceOnUse">
<stop stop-color="#AB8D60"/>
<stop offset="0.0682" stop-color="#B29466"/>
<stop offset="0.5057" stop-color="#DBC087"/>
<stop offset="1" stop-color="#AB8D60"/>
</linearGradient>
<radialGradient id="paint2_radial_419_12911" cx="0" cy="0" r="1" gradientUnits="userSpaceOnUse" gradientTransform="translate(194.014 175.495) rotate(1.76642) scale(98.4435 98.3534)">
<stop offset="0.0616" stop-color="#DBC087"/>
<stop offset="1" stop-color="#191919"/>
</radialGradient>
<radialGradient id="paint3_radial_419_12911" cx="0" cy="0" r="1" gradientUnits="userSpaceOnUse" gradientTransform="translate(183.514 144.116) rotate(1.76642) scale(120.121 120.011)">
<stop offset="0.0616" stop-color="#DBC087"/>
<stop offset="1" stop-color="#191919"/>
</radialGradient>
<radialGradient id="paint4_radial_419_12911" cx="0" cy="0" r="1" gradientUnits="userSpaceOnUse" gradientTransform="translate(211.747 161.409) rotate(6.5198) scale(98.417 98.3573)">
<stop offset="0.0616" stop-color="#DBC087"/>
<stop offset="1" stop-color="#191919"/>
</radialGradient>
<radialGradient id="paint5_radial_419_12911" cx="0" cy="0" r="1" gradientUnits="userSpaceOnUse" gradientTransform="translate(206.577 128.726) rotate(11.2482) scale(120.103 120.038)">
<stop offset="0.0616" stop-color="#DBC087"/>
<stop offset="1" stop-color="#191919"/>
</radialGradient>
<radialGradient id="paint6_radial_419_12911" cx="0" cy="0" r="1" gradientUnits="userSpaceOnUse" gradientTransform="translate(231.564 150.438) rotate(16.0006) scale(98.4191 98.3696)">
<stop offset="0.0616" stop-color="#DBC087"/>
<stop offset="1" stop-color="#191919"/>
</radialGradient>
<radialGradient id="paint7_radial_419_12911" cx="0" cy="0" r="1" gradientUnits="userSpaceOnUse" gradientTransform="translate(231.863 117.35) rotate(20.7525) scale(120.117 120.027)">
<stop offset="0.0616" stop-color="#DBC087"/>
<stop offset="1" stop-color="#191919"/>
</radialGradient>
<radialGradient id="paint8_radial_419_12911" cx="0" cy="0" r="1" gradientUnits="userSpaceOnUse" gradientTransform="translate(252.921 142.884) rotate(25.4935) scale(98.4105 98.3693)">
<stop offset="0.0616" stop-color="#DBC087"/>
<stop offset="1" stop-color="#191919"/>
</radialGradient>
<radialGradient id="paint9_radial_419_12911" cx="0" cy="0" r="1" gradientUnits="userSpaceOnUse" gradientTransform="translate(258.682 110.298) rotate(30.2439) scale(120.082 120.037)">
<stop offset="0.0616" stop-color="#DBC087"/>
<stop offset="1" stop-color="#191919"/>
</radialGradient>
<radialGradient id="paint10_radial_419_12911" cx="0" cy="0" r="1" gradientUnits="userSpaceOnUse" gradientTransform="translate(275.231 138.958) rotate(34.9807) scale(98.4036 98.389)">
<stop offset="0.0616" stop-color="#DBC087"/>
<stop offset="1" stop-color="#191919"/>
</radialGradient>
<radialGradient id="paint11_radial_419_12911" cx="0" cy="0" r="1" gradientUnits="userSpaceOnUse" gradientTransform="translate(287.586 107.766) rotate(39.7373) scale(120.068 120.036)">
<stop offset="0.0616" stop-color="#DBC087"/>
<stop offset="1" stop-color="#191919"/>
</radialGradient>
<radialGradient id="paint12_radial_419_12911" cx="0" cy="0" r="1" gradientUnits="userSpaceOnUse" gradientTransform="translate(297.886 138.761) rotate(44.4803) scale(98.3987 98.3979)">
<stop offset="0.0616" stop-color="#DBC087"/>
<stop offset="1" stop-color="#191919"/>
</radialGradient>
<radialGradient id="paint13_radial_419_12911" cx="0" cy="0" r="1" gradientUnits="userSpaceOnUse" gradientTransform="translate(313.954 109.823) rotate(49.2222) scale(120.067 120.075)">
<stop offset="0.0616" stop-color="#DBC087"/>
<stop offset="1" stop-color="#191919"/>
</radialGradient>
<radialGradient id="paint14_radial_419_12911" cx="0" cy="0" r="1" gradientUnits="userSpaceOnUse" gradientTransform="translate(320.262 142.305) rotate(53.9803) scale(98.3929 98.4062)">
<stop offset="0.0616" stop-color="#DBC087"/>
<stop offset="1" stop-color="#191919"/>
</radialGradient>
<radialGradient id="paint15_radial_419_12911" cx="0" cy="0" r="1" gradientUnits="userSpaceOnUse" gradientTransform="translate(340.889 116.409) rotate(58.7272) scale(120.063 120.088)">
<stop offset="0.0616" stop-color="#DBC087"/>
<stop offset="1" stop-color="#191919"/>
</radialGradient>
<radialGradient id="paint16_radial_419_12911" cx="0" cy="0" r="1" gradientUnits="userSpaceOnUse" gradientTransform="translate(341.747 149.489) rotate(63.4819) scale(98.3701 98.4104)">
<stop offset="0.0616" stop-color="#DBC087"/>
<stop offset="1" stop-color="#191919"/>
</radialGradient>
<radialGradient id="paint17_radial_419_12911" cx="0" cy="0" r="1" gradientUnits="userSpaceOnUse" gradientTransform="translate(366.37 127.35) rotate(68.2376) scale(120.037 120.092)">
<stop offset="0.0616" stop-color="#DBC087"/>
<stop offset="1" stop-color="#191919"/>
</radialGradient>
<radialGradient id="paint18_radial_419_12911" cx="0" cy="0" r="1" gradientUnits="userSpaceOnUse" gradientTransform="translate(361.75 160.116) rotate(72.9873) scale(98.3721 98.4207)">
<stop offset="0.0616" stop-color="#DBC087"/>
<stop offset="1" stop-color="#191919"/>
</radialGradient>
<radialGradient id="paint19_radial_419_12911" cx="0" cy="0" r="1" gradientUnits="userSpaceOnUse" gradientTransform="translate(389.694 142.339) rotate(77.7427) scale(120.003 120.11)">
<stop offset="0.0616" stop-color="#DBC087"/>
<stop offset="1" stop-color="#191919"/>
</radialGradient>
<radialGradient id="paint20_radial_419_12911" cx="0" cy="0" r="1" gradientUnits="userSpaceOnUse" gradientTransform="translate(379.724 173.895) rotate(82.4886) scale(98.3595 98.419)">
<stop offset="0.0616" stop-color="#DBC087"/>
<stop offset="1" stop-color="#191919"/>
</radialGradient>
<radialGradient id="paint21_radial_419_12911" cx="0" cy="0" r="1" gradientUnits="userSpaceOnUse" gradientTransform="translate(410.224 160.969) rotate(87.2337) scale(120.026 120.135)">
<stop offset="0.0616" stop-color="#DBC087"/>
<stop offset="1" stop-color="#191919"/>
</radialGradient>
<radialGradient id="paint22_radial_419_12911" cx="0" cy="0" r="1" gradientUnits="userSpaceOnUse" gradientTransform="translate(395.176 190.45) rotate(91.9954) scale(98.3487 98.4387)">
<stop offset="0.0616" stop-color="#DBC087"/>
<stop offset="1" stop-color="#191919"/>
</radialGradient>
<radialGradient id="paint23_radial_419_12911" cx="0" cy="0" r="1" gradientUnits="userSpaceOnUse" gradientTransform="translate(427.395 182.726) rotate(96.7538) scale(119.999 120.104)">
<stop offset="0.0616" stop-color="#DBC087"/>
<stop offset="1" stop-color="#191919"/>
</radialGradient>
<radialGradient id="paint24_radial_419_12911" cx="0" cy="0" r="1" gradientUnits="userSpaceOnUse" gradientTransform="translate(407.683 209.324) rotate(101.506) scale(98.3436 98.4258)">
<stop offset="0.0616" stop-color="#DBC087"/>
<stop offset="1" stop-color="#191919"/>
</radialGradient>
<radialGradient id="paint25_radial_419_12911" cx="0" cy="0" r="1" gradientUnits="userSpaceOnUse" gradientTransform="translate(440.737 207.018) rotate(106.248) scale(120.021 120.126)">
<stop offset="0.0616" stop-color="#DBC087"/>
<stop offset="1" stop-color="#191919"/>
</radialGradient>
<radialGradient id="paint26_radial_419_12911" cx="0" cy="0" r="1" gradientUnits="userSpaceOnUse" gradientTransform="translate(416.902 230.002) rotate(111.009) scale(98.3736 98.4189)">
<stop offset="0.0616" stop-color="#DBC087"/>
<stop offset="1" stop-color="#191919"/>
</radialGradient>
<radialGradient id="paint27_radial_419_12911" cx="0" cy="0" r="1" gradientUnits="userSpaceOnUse" gradientTransform="translate(449.884 233.179) rotate(115.759) scale(120.046 120.096)">
<stop offset="0.0616" stop-color="#DBC087"/>
<stop offset="1" stop-color="#191919"/>
</radialGradient>
<radialGradient id="paint28_radial_419_12911" cx="0" cy="0" r="1" gradientUnits="userSpaceOnUse" gradientTransform="translate(422.579 251.917) rotate(120.505) scale(98.3816 98.418)">
<stop offset="0.0616" stop-color="#DBC087"/>
<stop offset="1" stop-color="#191919"/>
</radialGradient>
<radialGradient id="paint29_radial_419_12911" cx="0" cy="0" r="1" gradientUnits="userSpaceOnUse" gradientTransform="translate(454.588 260.487) rotate(125.253) scale(120.054 120.093)">
<stop offset="0.0616" stop-color="#DBC087"/>
<stop offset="1" stop-color="#191919"/>
</radialGradient>
<radialGradient id="paint30_radial_419_12911" cx="0" cy="0" r="1" gradientUnits="userSpaceOnUse" gradientTransform="translate(424.56 274.467) rotate(130.007) scale(98.3877 98.4141)">
<stop offset="0.0616" stop-color="#DBC087"/>
<stop offset="1" stop-color="#191919"/>
</radialGradient>
<radialGradient id="paint31_radial_419_12911" cx="0" cy="0" r="1" gradientUnits="userSpaceOnUse" gradientTransform="translate(454.715 288.193) rotate(134.753) scale(120.062 120.063)">
<stop offset="0.0616" stop-color="#DBC087"/>
<stop offset="1" stop-color="#191919"/>
</radialGradient>
<radialGradient id="paint32_radial_419_12911" cx="0" cy="0" r="1" gradientUnits="userSpaceOnUse" gradientTransform="translate(422.788 297.035) rotate(139.507) scale(98.3934 98.3867)">
<stop offset="0.0616" stop-color="#DBC087"/>
<stop offset="1" stop-color="#191919"/>
</radialGradient>
<radialGradient id="paint33_radial_419_12911" cx="0" cy="0" r="1" gradientUnits="userSpaceOnUse" gradientTransform="translate(450.268 315.546) rotate(144.253) scale(120.101 120.033)">
<stop offset="0.0616" stop-color="#DBC087"/>
<stop offset="1" stop-color="#191919"/>
</radialGradient>
<radialGradient id="paint34_radial_419_12911" cx="0" cy="0" r="1" gradientUnits="userSpaceOnUse" gradientTransform="translate(417.315 319.003) rotate(149.003) scale(98.4179 98.3818)">
<stop offset="0.0616" stop-color="#DBC087"/>
<stop offset="1" stop-color="#191919"/>
</radialGradient>
<radialGradient id="paint35_radial_419_12911" cx="0" cy="0" r="1" gradientUnits="userSpaceOnUse" gradientTransform="translate(441.363 341.789) rotate(153.748) scale(120.094 120.045)">
<stop offset="0.0616" stop-color="#DBC087"/>
<stop offset="1" stop-color="#191919"/>
</radialGradient>
<radialGradient id="paint36_radial_419_12911" cx="0" cy="0" r="1" gradientUnits="userSpaceOnUse" gradientTransform="translate(408.291 339.765) rotate(158.494) scale(98.4164 98.3715)">
<stop offset="0.0616" stop-color="#DBC087"/>
<stop offset="1" stop-color="#191919"/>
</radialGradient>
<radialGradient id="paint37_radial_419_12911" cx="0" cy="0" r="1" gradientUnits="userSpaceOnUse" gradientTransform="translate(428.246 366.204) rotate(163.235) scale(120.092 120.032)">
<stop offset="0.0616" stop-color="#DBC087"/>
<stop offset="1" stop-color="#191919"/>
</radialGradient>
<radialGradient id="paint38_radial_419_12911" cx="0" cy="0" r="1" gradientUnits="userSpaceOnUse" gradientTransform="translate(395.958 358.755) rotate(167.987) scale(98.4457 98.3575)">
<stop offset="0.0616" stop-color="#DBC087"/>
<stop offset="1" stop-color="#191919"/>
</radialGradient>
<radialGradient id="paint39_radial_419_12911" cx="0" cy="0" r="1" gradientUnits="userSpaceOnUse" gradientTransform="translate(411.279 388.121) rotate(172.74) scale(120.106 120.002)">
<stop offset="0.0616" stop-color="#DBC087"/>
<stop offset="1" stop-color="#191919"/>
</radialGradient>
<radialGradient id="paint40_radial_419_12911" cx="0" cy="0" r="1" gradientUnits="userSpaceOnUse" gradientTransform="translate(380.66 375.453) rotate(177.481) scale(98.4249 98.3648)">
<stop offset="0.0616" stop-color="#DBC087"/>
<stop offset="1" stop-color="#191919"/>
</radialGradient>
<radialGradient id="paint41_radial_419_12911" cx="0" cy="0" r="1" gradientUnits="userSpaceOnUse" gradientTransform="translate(390.924 406.939) rotate(-177.779) scale(120.121 120.011)">
<stop offset="0.0616" stop-color="#DBC087"/>
<stop offset="1" stop-color="#191919"/>
</radialGradient>
<radialGradient id="paint42_radial_419_12911" cx="0" cy="0" r="1" gradientUnits="userSpaceOnUse" gradientTransform="translate(362.816 389.399) rotate(-173.04) scale(98.4294 98.3735)">
<stop offset="0.0616" stop-color="#DBC087"/>
<stop offset="1" stop-color="#191919"/>
</radialGradient>
<radialGradient id="paint43_radial_419_12911" cx="0" cy="0" r="1" gradientUnits="userSpaceOnUse" gradientTransform="translate(367.739 422.146) rotate(-168.289) scale(120.089 120.017)">
<stop offset="0.0616" stop-color="#DBC087"/>
<stop offset="1" stop-color="#191919"/>
</radialGradient>
<radialGradient id="paint44_radial_419_12911" cx="0" cy="0" r="1" gradientUnits="userSpaceOnUse" gradientTransform="translate(342.911 400.212) rotate(-163.545) scale(98.4186 98.3694)">
<stop offset="0.0616" stop-color="#DBC087"/>
<stop offset="1" stop-color="#191919"/>
</radialGradient>
<radialGradient id="paint45_radial_419_12911" cx="0" cy="0" r="1" gradientUnits="userSpaceOnUse" gradientTransform="translate(342.363 433.32) rotate(-158.793) scale(120.091 120.035)">
<stop offset="0.0616" stop-color="#DBC087"/>
<stop offset="1" stop-color="#191919"/>
</radialGradient>
<radialGradient id="paint46_radial_419_12911" cx="0" cy="0" r="1" gradientUnits="userSpaceOnUse" gradientTransform="translate(321.495 407.593) rotate(-154.061) scale(98.432 98.3639)">
<stop offset="0.0616" stop-color="#DBC087"/>
<stop offset="1" stop-color="#191919"/>
</radialGradient>
<radialGradient id="paint47_radial_419_12911" cx="0" cy="0" r="1" gradientUnits="userSpaceOnUse" gradientTransform="translate(315.488 440.157) rotate(-149.309) scale(120.085 120.059)">
<stop offset="0.0616" stop-color="#DBC087"/>
<stop offset="1" stop-color="#191919"/>
</radialGradient>
<radialGradient id="paint48_radial_419_12911" cx="0" cy="0" r="1" gradientUnits="userSpaceOnUse" gradientTransform="translate(299.153 411.347) rotate(-144.554) scale(98.4019 98.3703)">
<stop offset="0.0616" stop-color="#DBC087"/>
<stop offset="1" stop-color="#191919"/>
</radialGradient>
<radialGradient id="paint49_radial_419_12911" cx="0" cy="0" r="1" gradientUnits="userSpaceOnUse" gradientTransform="translate(287.854 442.468) rotate(-139.805) scale(120.075 120.042)">
<stop offset="0.0616" stop-color="#DBC087"/>
<stop offset="1" stop-color="#191919"/>
</radialGradient>
<radialGradient id="paint50_radial_419_12911" cx="0" cy="0" r="1" gradientUnits="userSpaceOnUse" gradientTransform="translate(276.498 411.359) rotate(-135.062) scale(98.3748 98.396)">
<stop offset="0.0616" stop-color="#DBC087"/>
<stop offset="1" stop-color="#191919"/>
</radialGradient>
<radialGradient id="paint51_radial_419_12911" cx="0" cy="0" r="1" gradientUnits="userSpaceOnUse" gradientTransform="translate(260.216 440.193) rotate(-130.319) scale(120.067 120.075)">
<stop offset="0.0616" stop-color="#DBC087"/>
<stop offset="1" stop-color="#191919"/>
</radialGradient>
<radialGradient id="paint52_radial_419_12911" cx="0" cy="0" r="1" gradientUnits="userSpaceOnUse" gradientTransform="translate(254.151 407.637) rotate(-125.568) scale(98.3932 98.4071)">
<stop offset="0.0616" stop-color="#DBC087"/>
<stop offset="1" stop-color="#191919"/>
</radialGradient>
<radialGradient id="paint53_radial_419_12911" cx="0" cy="0" r="1" gradientUnits="userSpaceOnUse" gradientTransform="translate(233.333 433.392) rotate(-120.811) scale(120.027 120.103)">
<stop offset="0.0616" stop-color="#DBC087"/>
<stop offset="1" stop-color="#191919"/>
</radialGradient>
<radialGradient id="paint54_radial_419_12911" cx="0" cy="0" r="1" gradientUnits="userSpaceOnUse" gradientTransform="translate(232.724 400.283) rotate(-116.049) scale(98.3706 98.4114)">
<stop offset="0.0616" stop-color="#DBC087"/>
<stop offset="1" stop-color="#191919"/>
</radialGradient>
<radialGradient id="paint55_radial_419_12911" cx="0" cy="0" r="1" gradientUnits="userSpaceOnUse" gradientTransform="translate(207.941 422.251) rotate(-111.314) scale(120.025 120.114)">
<stop offset="0.0616" stop-color="#DBC087"/>
<stop offset="1" stop-color="#191919"/>
</radialGradient>
<radialGradient id="paint56_radial_419_12911" cx="0" cy="0" r="1" gradientUnits="userSpaceOnUse" gradientTransform="translate(212.807 389.499) rotate(-106.558) scale(98.3597 98.4376)">
<stop offset="0.0616" stop-color="#DBC087"/>
<stop offset="1" stop-color="#191919"/>
</radialGradient>
<radialGradient id="paint57_radial_419_12911" cx="0" cy="0" r="1" gradientUnits="userSpaceOnUse" gradientTransform="translate(184.737 407.075) rotate(-101.808) scale(120.042 120.106)">
<stop offset="0.0616" stop-color="#DBC087"/>
<stop offset="1" stop-color="#191919"/>
</radialGradient>
<radialGradient id="paint58_radial_419_12911" cx="0" cy="0" r="1" gradientUnits="userSpaceOnUse" gradientTransform="translate(194.944 375.575) rotate(-97.0534) scale(98.3443 98.4338)">
<stop offset="0.0616" stop-color="#DBC087"/>
<stop offset="1" stop-color="#191919"/>
</radialGradient>
<radialGradient id="paint59_radial_419_12911" cx="0" cy="0" r="1" gradientUnits="userSpaceOnUse" gradientTransform="translate(164.356 388.285) rotate(-92.2934) scale(120.008 120.118)">
<stop offset="0.0616" stop-color="#DBC087"/>
<stop offset="1" stop-color="#191919"/>
</radialGradient>
<radialGradient id="paint60_radial_419_12911" cx="0" cy="0" r="1" gradientUnits="userSpaceOnUse" gradientTransform="translate(179.623 358.898) rotate(-87.5492) scale(98.3498 98.4398)">
<stop offset="0.0616" stop-color="#DBC087"/>
<stop offset="1" stop-color="#191919"/>
</radialGradient>
<radialGradient id="paint61_radial_419_12911" cx="0" cy="0" r="1" gradientUnits="userSpaceOnUse" gradientTransform="translate(147.359 366.389) rotate(-82.7882) scale(120 120.104)">
<stop offset="0.0616" stop-color="#DBC087"/>
<stop offset="1" stop-color="#191919"/>
</radialGradient>
<radialGradient id="paint62_radial_419_12911" cx="0" cy="0" r="1" gradientUnits="userSpaceOnUse" gradientTransform="translate(167.267 339.925) rotate(-78.0482) scale(98.3753 98.4341)">
<stop offset="0.0616" stop-color="#DBC087"/>
<stop offset="1" stop-color="#191919"/>
</radialGradient>
<radialGradient id="paint63_radial_419_12911" cx="0" cy="0" r="1" gradientUnits="userSpaceOnUse" gradientTransform="translate(134.212 341.992) rotate(-73.2974) scale(120.047 120.117)">
<stop offset="0.0616" stop-color="#DBC087"/>
<stop offset="1" stop-color="#191919"/>
</radialGradient>
<radialGradient id="paint64_radial_419_12911" cx="0" cy="0" r="1" gradientUnits="userSpaceOnUse" gradientTransform="translate(158.214 319.175) rotate(-68.5366) scale(98.3525 98.4254)">
<stop offset="0.0616" stop-color="#DBC087"/>
<stop offset="1" stop-color="#191919"/>
</radialGradient>
<radialGradient id="paint65_radial_419_12911" cx="0" cy="0" r="1" gradientUnits="userSpaceOnUse" gradientTransform="translate(125.271 315.762) rotate(-63.7949) scale(120.046 120.096)">
<stop offset="0.0616" stop-color="#DBC087"/>
<stop offset="1" stop-color="#191919"/>
</radialGradient>
<radialGradient id="paint66_radial_419_12911" cx="0" cy="0" r="1" gradientUnits="userSpaceOnUse" gradientTransform="translate(152.712 297.215) rotate(-59.0332) scale(98.3783 98.3989)">
<stop offset="0.0616" stop-color="#DBC087"/>
<stop offset="1" stop-color="#191919"/>
</radialGradient>
<radialGradient id="paint67_radial_419_12911" cx="0" cy="0" r="1" gradientUnits="userSpaceOnUse" gradientTransform="translate(120.784 288.42) rotate(-54.2812) scale(120.05 120.067)">
<stop offset="0.0616" stop-color="#DBC087"/>
<stop offset="1" stop-color="#191919"/>
</radialGradient>
<radialGradient id="paint68_radial_419_12911" cx="0" cy="0" r="1" gradientUnits="userSpaceOnUse" gradientTransform="translate(150.911 274.65) rotate(-49.5447) scale(98.387 98.4133)">
<stop offset="0.0616" stop-color="#DBC087"/>
<stop offset="1" stop-color="#191919"/>
</radialGradient>
<radialGradient id="paint69_radial_419_12911" cx="0" cy="0" r="1" gradientUnits="userSpaceOnUse" gradientTransform="translate(120.878 260.706) rotate(-44.7773) scale(120.062 120.062)">
<stop offset="0.0616" stop-color="#DBC087"/>
<stop offset="1" stop-color="#191919"/>
</radialGradient>
<radialGradient id="paint70_radial_419_12911" cx="0" cy="0" r="1" gradientUnits="userSpaceOnUse" gradientTransform="translate(152.863 252.097) rotate(-40.034) scale(98.3923 98.3849)">
<stop offset="0.0616" stop-color="#DBC087"/>
<stop offset="1" stop-color="#191919"/>
</radialGradient>
<radialGradient id="paint71_radial_419_12911" cx="0" cy="0" r="1" gradientUnits="userSpaceOnUse" gradientTransform="translate(125.545 233.392) rotate(-35.2815) scale(120.067 120.05)">
<stop offset="0.0616" stop-color="#DBC087"/>
<stop offset="1" stop-color="#191919"/>
</radialGradient>
<radialGradient id="paint72_radial_419_12911" cx="0" cy="0" r="1" gradientUnits="userSpaceOnUse" gradientTransform="translate(158.509 230.173) rotate(-30.5498) scale(98.4179 98.3815)">
<stop offset="0.0616" stop-color="#DBC087"/>
<stop offset="1" stop-color="#191919"/>
</radialGradient>
<radialGradient id="paint73_radial_419_12911" cx="0" cy="0" r="1" gradientUnits="userSpaceOnUse" gradientTransform="translate(134.658 207.221) rotate(-25.7987) scale(120.107 120.024)">
<stop offset="0.0616" stop-color="#DBC087"/>
<stop offset="1" stop-color="#191919"/>
</radialGradient>
<radialGradient id="paint74_radial_419_12911" cx="0" cy="0" r="1" gradientUnits="userSpaceOnUse" gradientTransform="translate(167.7 209.483) rotate(-21.0513) scale(98.4277 98.3544)">
<stop offset="0.0616" stop-color="#DBC087"/>
<stop offset="1" stop-color="#191919"/>
</radialGradient>
<radialGradient id="paint75_radial_419_12911" cx="0" cy="0" r="1" gradientUnits="userSpaceOnUse" gradientTransform="translate(147.969 182.909) rotate(-16.3106) scale(120.115 120.045)">
<stop offset="0.0616" stop-color="#DBC087"/>
<stop offset="1" stop-color="#191919"/>
</radialGradient>
<radialGradient id="paint76_radial_419_12911" cx="0" cy="0" r="1" gradientUnits="userSpaceOnUse" gradientTransform="translate(180.183 190.591) rotate(-11.55) scale(98.4277 98.3454)">
<stop offset="0.0616" stop-color="#DBC087"/>
<stop offset="1" stop-color="#191919"/>
</radialGradient>
<radialGradient id="paint77_radial_419_12911" cx="0" cy="0" r="1" gradientUnits="userSpaceOnUse" gradientTransform="translate(165.112 161.129) rotate(-6.81916) scale(120.107 120.034)">
<stop offset="0.0616" stop-color="#DBC087"/>
<stop offset="1" stop-color="#191919"/>
</radialGradient>
<linearGradient id="paint78_linear_419_12911" x1="281.903" y1="683.917" x2="281.903" y2="-121.932" gradientUnits="userSpaceOnUse">
<stop stop-color="#D7B676"/>
<stop offset="0.0795" stop-color="#BDA069"/>
<stop offset="0.2461" stop-color="#8B7751"/>
<stop offset="0.4114" stop-color="#62553D"/>
<stop offset="0.5718" stop-color="#423B2D"/>
<stop offset="0.7262" stop-color="#2B2822"/>
<stop offset="0.8719" stop-color="#1E1D1B"/>
<stop offset="1" stop-color="#191919"/>
</linearGradient>
<linearGradient id="paint79_linear_419_12911" x1="281.903" y1="-86.9552" x2="281.903" y2="648.942" gradientUnits="userSpaceOnUse">
<stop stop-color="#D7B676"/>
<stop offset="0.0795" stop-color="#BDA069"/>
<stop offset="0.2461" stop-color="#8B7751"/>
<stop offset="0.4114" stop-color="#62553D"/>
<stop offset="0.5718" stop-color="#423B2D"/>
<stop offset="0.7262" stop-color="#2B2822"/>
<stop offset="0.8719" stop-color="#1E1D1B"/>
<stop offset="1" stop-color="#191919"/>
</linearGradient>
<linearGradient id="paint80_linear_419_12911" x1="44.5738" y1="518.32" x2="519.233" y2="43.6612" gradientUnits="userSpaceOnUse">
<stop stop-color="#D7B676"/>
<stop offset="0.0795" stop-color="#BDA069"/>
<stop offset="0.2461" stop-color="#8B7751"/>
<stop offset="0.4114" stop-color="#62553D"/>
<stop offset="0.5718" stop-color="#423B2D"/>
<stop offset="0.7262" stop-color="#2B2822"/>
<stop offset="0.8719" stop-color="#1E1D1B"/>
<stop offset="1" stop-color="#191919"/>
</linearGradient>
<linearGradient id="paint81_linear_419_12911" x1="523.911" y1="5.61124" x2="555.306" y2="37.0067" gradientUnits="userSpaceOnUse">
<stop stop-color="#D7B676"/>
<stop offset="0.0351" stop-color="#CBAC70"/>
<stop offset="0.2246" stop-color="#8C7851"/>
<stop offset="0.3976" stop-color="#5A4F39"/>
<stop offset="0.5482" stop-color="#373228"/>
<stop offset="0.6708" stop-color="#21201D"/>
<stop offset="0.7499" stop-color="#191919"/>
</linearGradient>
<linearGradient id="paint82_linear_419_12911" x1="555.306" y1="522.797" x2="523.91" y2="554.193" gradientUnits="userSpaceOnUse">
<stop stop-color="#D7B676"/>
<stop offset="0.0351" stop-color="#CBAC70"/>
<stop offset="0.2246" stop-color="#8C7851"/>
<stop offset="0.3976" stop-color="#5A4F39"/>
<stop offset="0.5482" stop-color="#373228"/>
<stop offset="0.6708" stop-color="#21201D"/>
<stop offset="0.7499" stop-color="#191919"/>
</linearGradient>
<linearGradient id="paint83_linear_419_12911" x1="6.31622" y1="37.0062" x2="37.712" y2="5.61091" gradientUnits="userSpaceOnUse">
<stop stop-color="#D7B676"/>
<stop offset="0.0351" stop-color="#CBAC70"/>
<stop offset="0.2246" stop-color="#8C7851"/>
<stop offset="0.3976" stop-color="#5A4F39"/>
<stop offset="0.5482" stop-color="#373228"/>
<stop offset="0.6708" stop-color="#21201D"/>
<stop offset="0.7499" stop-color="#191919"/>
</linearGradient>
<linearGradient id="paint84_linear_419_12911" x1="37.7123" y1="558.181" x2="6.31664" y2="526.786" gradientUnits="userSpaceOnUse">
<stop stop-color="#D7B676"/>
<stop offset="0.0351" stop-color="#CBAC70"/>
<stop offset="0.2246" stop-color="#8C7851"/>
<stop offset="0.3976" stop-color="#5A4F39"/>
<stop offset="0.5482" stop-color="#373228"/>
<stop offset="0.6708" stop-color="#21201D"/>
<stop offset="0.7499" stop-color="#191919"/>
</linearGradient>
<linearGradient id="paint85_linear_419_12911" x1="599.578" y1="-73.5456" x2="599.578" y2="0.681558" gradientUnits="userSpaceOnUse">
<stop stop-color="#AB8D60"/>
<stop offset="0.0682" stop-color="#B29466"/>
<stop offset="0.5057" stop-color="#DBC087"/>
<stop offset="1" stop-color="#AB8D60"/>
</linearGradient>
<linearGradient id="paint86_linear_419_12911" x1="-39.4045" y1="564.95" x2="-39.4045" y2="639.141" gradientUnits="userSpaceOnUse">
<stop stop-color="#AB8D60"/>
<stop offset="0.0682" stop-color="#B29466"/>
<stop offset="0.5057" stop-color="#DBC087"/>
<stop offset="1" stop-color="#AB8D60"/>
</linearGradient>
<linearGradient id="paint87_linear_419_12911" x1="13.3956" y1="280.993" x2="550.41" y2="280.993" gradientUnits="userSpaceOnUse">
<stop stop-color="#AB8D60"/>
<stop offset="0.0682" stop-color="#B29466"/>
<stop offset="0.5057" stop-color="#DBC087"/>
<stop offset="1" stop-color="#AB8D60"/>
</linearGradient>
<clipPath id="clip0_419_12911">
<rect width="563" height="563" fill="white"/>
</clipPath>
</defs>
</svg>
