<svg width="229" height="42" viewBox="0 0 229 42" fill="none" xmlns="http://www.w3.org/2000/svg">
<path fill-rule="evenodd" clip-rule="evenodd" d="M0.202721 34.1312L18.3978 0.816011C19.0041 -0.294194 20.6081 -0.265621 21.1745 0.865472L28.7767 16.0465C29.1327 16.7574 28.8999 17.6223 28.2352 18.0585L24.9055 20.2436C24.1012 20.7714 23.0155 20.4566 22.6183 19.5804L21.3376 16.7552C20.7695 15.5021 18.9779 15.5368 18.4588 16.811L14.2697 27.0931C14.162 27.3576 13.9841 27.5876 13.7551 27.7582L2.51492 36.1388C1.16622 37.1444 -0.603648 35.6077 0.202721 34.1312ZM43.5183 20.1938C41.0741 17.0206 38.2867 12.0892 45.4795 6.54884C41.6716 9.48194 36.8373 11.5202 31.6228 4.75046C33.9016 7.7089 37.6436 12.567 29.4294 18.9116L28.9471 18.2854L3.54517 36.5688C3.3501 36.7092 3.18994 36.8926 3.07707 37.1047L2.5527 38.0905C1.99742 39.1344 2.75396 40.3937 3.93632 40.3937L4.78391 40.3937C5.15585 40.3937 5.51566 40.2614 5.79903 40.0205L29.9035 19.527L29.4294 18.9116C33.8614 15.5007 37.9896 13.0161 43.5183 20.1938ZM38.9398 40.5116L25.5181 26.3512C24.8888 25.6872 24.9595 24.6277 25.6714 24.0533L29.2953 21.1296C30.1228 20.462 31.3608 20.7946 31.7422 21.787L38.9398 40.5116Z" fill="#EAB15A"/>
<path d="M67.0435 28H55.2355L61.1395 15.202L67.0435 28ZM56.2795 27.334H65.9995L61.1395 16.786L56.2795 27.334Z" fill="#EAB15A"/>
<path d="M69.0434 28.0001H57.2354L63.1394 15.2021L69.0434 28.0001ZM58.2794 27.3341H67.9994L63.1394 16.7861L58.2794 27.3341Z" fill="#EAB15A"/>
<path d="M81.5216 15.4721V16.1381H76.7876V28.0001H76.1396V16.1381H71.4056V15.4721H81.5216Z" fill="#EAB15A"/>
<path d="M92.3078 15.8321C92.8718 16.1201 93.3038 16.5161 93.6038 17.0201C93.9158 17.5241 94.0718 18.0881 94.0718 18.7121C94.0718 19.3001 93.9158 19.8461 93.6038 20.3501C93.3038 20.8421 92.8838 21.2321 92.3438 21.5201C92.9798 21.7361 93.5078 22.1321 93.9278 22.7081C94.3478 23.2841 94.5578 23.9201 94.5578 24.6161C94.5578 25.2401 94.4018 25.8161 94.0898 26.3441C93.7778 26.8721 93.3638 27.2801 92.8478 27.5681C92.5838 27.7121 92.2898 27.8201 91.9658 27.8921C91.6418 27.9641 91.2098 28.0001 90.6698 28.0001H85.4138V15.4721H90.4178C91.2098 15.4721 91.8398 15.5921 92.3078 15.8321ZM92.0198 20.9981C92.4518 20.7821 92.7938 20.4701 93.0458 20.0621C93.2978 19.6541 93.4238 19.2041 93.4238 18.7121C93.4238 18.1601 93.2798 17.6801 92.9918 17.2721C92.7038 16.8521 92.3378 16.5461 91.8938 16.3541C91.5578 16.2101 90.9938 16.1381 90.2018 16.1381H86.0618V21.2861H90.5258C91.1498 21.2861 91.6478 21.1901 92.0198 20.9981ZM92.4518 27.0641C92.8958 26.8361 93.2498 26.5061 93.5138 26.0741C93.7778 25.6301 93.9098 25.1501 93.9098 24.6341C93.9098 24.0941 93.7718 23.6081 93.4958 23.1761C93.2198 22.7321 92.8478 22.4021 92.3798 22.1861C92.0198 22.0181 91.5338 21.9341 90.9218 21.9341H86.0618V27.3521H90.6878C91.1438 27.3521 91.5038 27.3281 91.7678 27.2801C92.0318 27.2321 92.2598 27.1601 92.4518 27.0641Z" fill="#EAB15A"/>
<path d="M102.77 15.4721H103.472L108.62 28.0001H107.9L106.208 23.8601H100.034L98.324 28.0001H97.622L102.77 15.4721ZM100.304 23.2121H105.938L103.112 16.3361L100.304 23.2121Z" fill="#EAB15A"/>
<path d="M116.706 22.0061C115.686 21.8021 114.852 21.5801 114.204 21.3401C113.568 21.0881 113.064 20.7521 112.692 20.3321C112.332 19.9001 112.152 19.3481 112.152 18.6761C112.152 17.9801 112.332 17.3681 112.692 16.8401C113.064 16.3121 113.58 15.9041 114.24 15.6161C114.912 15.3281 115.686 15.1841 116.562 15.1841C117.402 15.1841 118.17 15.3641 118.866 15.7241C119.574 16.0721 120.132 16.5641 120.54 17.2001C120.948 17.8361 121.152 18.5621 121.152 19.3781H120.486C120.486 18.6701 120.312 18.0461 119.964 17.5061C119.616 16.9661 119.142 16.5521 118.542 16.2641C117.942 15.9641 117.276 15.8141 116.544 15.8141C115.896 15.8141 115.29 15.9161 114.726 16.1201C114.162 16.3241 113.7 16.6361 113.34 17.0561C112.992 17.4761 112.818 18.0041 112.818 18.6401C112.818 19.2161 112.986 19.6781 113.322 20.0261C113.658 20.3621 114.096 20.6201 114.636 20.8001C115.176 20.9801 115.932 21.1721 116.904 21.3761C117.888 21.5801 118.65 21.7781 119.19 21.9701C119.742 22.1501 120.204 22.4561 120.576 22.8881C120.96 23.3201 121.152 23.9261 121.152 24.7061C121.152 25.4861 120.942 26.1461 120.522 26.6861C120.114 27.2141 119.568 27.6101 118.884 27.8741C118.2 28.1381 117.456 28.2701 116.652 28.2701C115.656 28.2701 114.78 28.0841 114.024 27.7121C113.268 27.3401 112.686 26.8181 112.278 26.1461C111.882 25.4621 111.684 24.6821 111.684 23.8061H112.35C112.35 24.5741 112.518 25.2461 112.854 25.8221C113.202 26.3981 113.7 26.8481 114.348 27.1721C114.996 27.4841 115.764 27.6401 116.652 27.6401C117.756 27.6401 118.668 27.3761 119.388 26.8481C120.12 26.3201 120.486 25.6001 120.486 24.6881C120.486 24.0641 120.33 23.5841 120.018 23.2481C119.706 22.9121 119.31 22.6721 118.83 22.5281C118.362 22.3721 117.654 22.1981 116.706 22.0061Z" fill="#EAB15A"/>
<path d="M124.936 28.0001V15.4721H125.602V21.3941H133.918V15.4721H134.584V28.0001H133.918V22.0601H125.602V28.0001H124.936Z" fill="#EAB15A"/>
<path d="M150.505 15.4541H162.313L156.409 28.2521L150.505 15.4541ZM156.409 26.6681L161.287 16.1201H151.549L156.409 26.6681Z" fill="#EAB15A"/>
<path d="M169.733 15.2021C170.669 15.2021 171.533 15.4361 172.325 15.9041C173.117 16.3601 173.741 16.9841 174.197 17.7761C174.665 18.5681 174.899 19.4321 174.899 20.3681V23.1041C174.899 24.0401 174.665 24.9041 174.197 25.6961C173.741 26.4881 173.117 27.1181 172.325 27.5861C171.533 28.0421 170.669 28.2701 169.733 28.2701C168.797 28.2701 167.933 28.0421 167.141 27.5861C166.349 27.1181 165.719 26.4881 165.251 25.6961C164.795 24.9041 164.567 24.0401 164.567 23.1041V20.3681C164.567 19.4321 164.795 18.5681 165.251 17.7761C165.719 16.9841 166.349 16.3601 167.141 15.9041C167.933 15.4361 168.797 15.2021 169.733 15.2021ZM165.233 23.1041C165.233 23.9201 165.431 24.6761 165.827 25.3721C166.235 26.0561 166.781 26.6021 167.465 27.0101C168.161 27.4061 168.917 27.6041 169.733 27.6041C170.549 27.6041 171.299 27.4061 171.983 27.0101C172.679 26.6021 173.225 26.0561 173.621 25.3721C174.029 24.6761 174.233 23.9201 174.233 23.1041V20.3681C174.233 19.5521 174.029 18.8021 173.621 18.1181C173.225 17.4221 172.679 16.8761 171.983 16.4801C171.299 16.0721 170.549 15.8681 169.733 15.8681C168.917 15.8681 168.161 16.0721 167.465 16.4801C166.781 16.8761 166.235 17.4221 165.827 18.1181C165.431 18.8021 165.233 19.5521 165.233 20.3681V23.1041Z" fill="#EAB15A"/>
<path d="M188.115 15.4721V16.1381H183.381V28.0001H182.733V16.1381H177.999V15.4721H188.115Z" fill="#EAB15A"/>
<path d="M200.45 15.4721V16.1381H196.706V27.3341H200.45V28.0001H192.332V27.3341H196.058V16.1381H192.332V15.4721H200.45Z" fill="#EAB15A"/>
<path d="M204.81 28.0001V15.4721H205.512L214.26 23.9681V15.4721H214.926V28.0001H214.26V24.9041L205.476 16.3361V28.0001H204.81Z" fill="#EAB15A"/>
<path d="M227.44 25.4261C227.116 26.2541 226.528 26.9381 225.676 27.4781C224.824 28.0061 223.912 28.2701 222.94 28.2701C222.004 28.2701 221.14 28.0361 220.348 27.5681C219.556 27.1001 218.926 26.4581 218.458 25.6421C218.002 24.8141 217.774 23.9081 217.774 22.9241V20.4041C217.774 19.4441 218.002 18.5681 218.458 17.7761C218.926 16.9841 219.55 16.3601 220.33 15.9041C221.122 15.4361 221.992 15.2021 222.94 15.2021C223.72 15.2021 224.434 15.3341 225.082 15.5981C225.73 15.8501 226.282 16.2221 226.738 16.7141C227.11 17.1221 227.41 17.5781 227.638 18.0821C227.878 18.5861 227.998 19.0961 227.998 19.6121H227.35C227.338 19.1681 227.224 18.7301 227.008 18.2981C226.804 17.8661 226.54 17.4761 226.216 17.1281C225.412 16.2881 224.32 15.8681 222.94 15.8681C222.112 15.8681 221.35 16.0721 220.654 16.4801C219.97 16.8761 219.43 17.4221 219.034 18.1181C218.638 18.8021 218.44 19.5641 218.44 20.4041V22.9241C218.44 23.8001 218.638 24.5981 219.034 25.3181C219.442 26.0261 219.988 26.5841 220.672 26.9921C221.368 27.4001 222.124 27.6041 222.94 27.6041C223.768 27.6041 224.524 27.4061 225.208 27.0101C225.904 26.6021 226.45 26.0561 226.846 25.3721C227.242 24.6761 227.44 23.9201 227.44 23.1041V22.4741H222.94V21.8081H228.106V28.0001H227.44V25.4261Z" fill="#EAB15A"/>
<path d="M148.235 15.454H160.043L154.139 28.252L148.235 15.454ZM154.139 26.668L159.017 16.12H149.279L154.139 26.668Z" fill="#EAB15A"/>
</svg>
