<svg width="130" height="42" viewBox="0 0 130 42" fill="none" xmlns="http://www.w3.org/2000/svg">
<path fill-rule="evenodd" clip-rule="evenodd" d="M0.202721 34.1312L18.3978 0.816011C19.0041 -0.294194 20.6081 -0.265621 21.1745 0.865472L28.7767 16.0465C29.1327 16.7574 28.8999 17.6223 28.2352 18.0585L24.9055 20.2436C24.1012 20.7714 23.0155 20.4566 22.6183 19.5804L21.3376 16.7552C20.7695 15.5021 18.9779 15.5368 18.4588 16.811L14.2697 27.0931C14.162 27.3576 13.9841 27.5876 13.7551 27.7582L2.51492 36.1388C1.16622 37.1444 -0.603648 35.6077 0.202721 34.1312ZM43.5183 20.1938C41.0741 17.0206 38.2867 12.0892 45.4795 6.54884C41.6716 9.48194 36.8373 11.5202 31.6228 4.75046C33.9016 7.7089 37.6436 12.567 29.4294 18.9116L28.9471 18.2854L3.54517 36.5688C3.3501 36.7092 3.18994 36.8926 3.07707 37.1047L2.5527 38.0905C1.99742 39.1344 2.75396 40.3937 3.93632 40.3937L4.78391 40.3937C5.15585 40.3937 5.51566 40.2614 5.79903 40.0205L29.9035 19.527L29.4294 18.9116C33.8614 15.5007 37.9896 13.0161 43.5183 20.1938ZM38.9398 40.5116L25.5181 26.3512C24.8888 25.6872 24.9595 24.6277 25.6714 24.0533L29.2953 21.1296C30.1228 20.462 31.3608 20.7946 31.7422 21.787L38.9398 40.5116Z" fill="#FFCD75"/>
<path d="M60.8595 14.46L66.7795 26.9H63.3995L59.6795 18.12L60.8595 14.46ZM57.0995 25.68C56.9528 26.04 56.9728 26.32 57.1595 26.52C57.3462 26.7067 57.5528 26.8 57.7795 26.8H57.9395V27H53.9395V26.8C53.9395 26.8 53.9662 26.8 54.0195 26.8C54.0728 26.8 54.0995 26.8 54.0995 26.8C54.3662 26.8 54.6462 26.72 54.9395 26.56C55.2328 26.3867 55.4728 26.0933 55.6595 25.68H57.0995ZM60.8595 14.46L60.8995 16.86L56.5595 26.94H55.0795L59.7595 16.88C59.7862 16.8 59.8462 16.66 59.9395 16.46C60.0328 16.2467 60.1328 16.0133 60.2395 15.76C60.3462 15.4933 60.4462 15.2467 60.5395 15.02C60.6328 14.78 60.6862 14.5933 60.6995 14.46H60.8595ZM62.5995 23.08V23.86H57.4995V23.08H62.5995ZM62.8995 25.68H66.1995C66.3995 26.0933 66.6462 26.3867 66.9395 26.56C67.2328 26.72 67.5128 26.8 67.7795 26.8C67.7795 26.8 67.8062 26.8 67.8595 26.8C67.9128 26.8 67.9395 26.8 67.9395 26.8V27H62.0595V26.8H62.2195C62.4462 26.8 62.6528 26.7067 62.8395 26.52C63.0262 26.32 63.0462 26.04 62.8995 25.68ZM73.6187 15.06V27H70.7187V15.06H73.6187ZM77.9787 14.98V15.78H66.3787V14.98H77.9787ZM77.9787 15.72V17.84H77.7587V17.66C77.772 17.0867 77.612 16.6333 77.2787 16.3C76.9587 15.9667 76.512 15.7933 75.9387 15.78V15.72H77.9787ZM77.9787 14.68V15.18L75.8587 14.98C76.112 14.98 76.3854 14.9667 76.6787 14.94C76.972 14.9 77.2387 14.86 77.4787 14.82C77.7187 14.7667 77.8854 14.72 77.9787 14.68ZM70.7587 25.74V27H69.4187V26.8C69.4187 26.8 69.452 26.8 69.5187 26.8C69.5987 26.8 69.6387 26.8 69.6387 26.8C69.932 26.8 70.1787 26.7 70.3787 26.5C70.592 26.2867 70.7054 26.0333 70.7187 25.74H70.7587ZM73.5587 25.74H73.6187C73.6187 26.0333 73.7254 26.2867 73.9387 26.5C74.152 26.7 74.412 26.8 74.7187 26.8C74.7187 26.8 74.752 26.8 74.8187 26.8C74.8987 26.8 74.9387 26.8 74.9387 26.8V27H73.5587V25.74ZM68.4187 15.72V15.78C67.832 15.7933 67.3787 15.9667 67.0587 16.3C66.752 16.6333 66.5987 17.0867 66.5987 17.66V17.84H66.3787V15.72H68.4187ZM66.3787 14.68C66.4987 14.7067 66.672 14.7467 66.8987 14.8C67.1387 14.8533 67.3987 14.9 67.6787 14.94C67.972 14.9667 68.2387 14.98 68.4787 14.98L66.3787 15.18V14.68ZM81.1071 15H84.4271C84.9471 15 85.4738 15.04 86.0071 15.12C86.5405 15.2 87.0271 15.3467 87.4671 15.56C87.9071 15.7733 88.2605 16.0733 88.5271 16.46C88.7938 16.8467 88.9271 17.3533 88.9271 17.98C88.9271 18.4867 88.8205 18.92 88.6071 19.28C88.3938 19.64 88.1205 19.92 87.7871 20.12C87.4538 20.32 87.1005 20.4333 86.7271 20.46C87.3138 20.5 87.8405 20.6533 88.3071 20.92C88.7738 21.1867 89.1471 21.5467 89.4271 22C89.7205 22.44 89.8671 22.9667 89.8671 23.58C89.8671 24.2067 89.7338 24.74 89.4671 25.18C89.2005 25.6067 88.8338 25.96 88.3671 26.24C87.9005 26.5067 87.3605 26.7 86.7471 26.82C86.1471 26.94 85.5138 27 84.8471 27H83.0471C83.0471 27 83.0471 26.9333 83.0471 26.8C83.0471 26.6667 83.0471 26.5333 83.0471 26.4C83.0471 26.2667 83.0471 26.2 83.0471 26.2H84.0071C84.4871 26.2 84.9205 26.1133 85.3071 25.94C85.7071 25.7533 86.0271 25.4533 86.2671 25.04C86.5071 24.6267 86.6271 24.08 86.6271 23.4C86.6271 22.9333 86.5538 22.5267 86.4071 22.18C86.2738 21.82 86.0805 21.5333 85.8271 21.32C85.5738 21.0933 85.2738 20.9267 84.9271 20.82C84.5805 20.7133 84.2005 20.66 83.7871 20.66V20.48C84.0805 20.48 84.3605 20.44 84.6271 20.36C84.8938 20.2667 85.1205 20.1333 85.3071 19.96C85.5071 19.7733 85.6605 19.5333 85.7671 19.24C85.8871 18.9467 85.9471 18.5933 85.9471 18.18C85.9471 17.2867 85.7405 16.6667 85.3271 16.32C84.9138 15.96 84.3938 15.78 83.7671 15.78H81.2871C81.2871 15.7667 81.2671 15.7 81.2271 15.58C81.2005 15.4467 81.1738 15.32 81.1471 15.2C81.1205 15.0667 81.1071 15 81.1071 15ZM83.1871 15V27H80.3471V15H83.1871ZM80.4071 25.74V27H79.0471V26.8C79.0605 26.8 79.0938 26.8 79.1471 26.8C79.2138 26.8 79.2538 26.8 79.2671 26.8C79.5871 26.8 79.8471 26.7 80.0471 26.5C80.2605 26.2867 80.3605 26.0333 80.3471 25.74H80.4071ZM80.4071 16.26H80.3471C80.3605 15.94 80.2605 15.6867 80.0471 15.5C79.8471 15.3 79.5871 15.2 79.2671 15.2C79.2538 15.2 79.2138 15.2 79.1471 15.2C79.0938 15.2 79.0605 15.2 79.0471 15.2V15H80.4071V16.26ZM96.7775 14.46L102.697 26.9H99.3175L95.5975 18.12L96.7775 14.46ZM93.0175 25.68C92.8708 26.04 92.8908 26.32 93.0775 26.52C93.2641 26.7067 93.4708 26.8 93.6975 26.8H93.8575V27H89.8575V26.8C89.8575 26.8 89.8841 26.8 89.9375 26.8C89.9908 26.8 90.0175 26.8 90.0175 26.8C90.2841 26.8 90.5641 26.72 90.8575 26.56C91.1508 26.3867 91.3908 26.0933 91.5775 25.68H93.0175ZM96.7775 14.46L96.8175 16.86L92.4775 26.94H90.9975L95.6775 16.88C95.7041 16.8 95.7641 16.66 95.8575 16.46C95.9508 16.2467 96.0508 16.0133 96.1575 15.76C96.2641 15.4933 96.3641 15.2467 96.4575 15.02C96.5508 14.78 96.6041 14.5933 96.6175 14.46H96.7775ZM98.5175 23.08V23.86H93.4175V23.08H98.5175ZM98.8175 25.68H102.117C102.317 26.0933 102.564 26.3867 102.857 26.56C103.151 26.72 103.431 26.8 103.697 26.8C103.697 26.8 103.724 26.8 103.777 26.8C103.831 26.8 103.857 26.8 103.857 26.8V27H97.9775V26.8H98.1375C98.3641 26.8 98.5708 26.7067 98.7575 26.52C98.9441 26.32 98.9641 26.04 98.8175 25.68ZM108.263 14.74C108.53 14.74 108.85 14.7533 109.223 14.78C109.61 14.8067 109.99 14.84 110.363 14.88C110.736 14.9067 111.063 14.9467 111.343 15C111.636 15.04 111.836 15.08 111.943 15.12L111.683 17.56H111.503C111.503 16.9467 111.29 16.46 110.863 16.1C110.436 15.74 109.823 15.56 109.023 15.56C108.383 15.56 107.863 15.7 107.463 15.98C107.076 16.26 106.87 16.6333 106.843 17.1C106.816 17.34 106.856 17.56 106.963 17.76C107.083 17.9467 107.243 18.1133 107.443 18.26C107.656 18.4067 107.89 18.5533 108.143 18.7L111.283 20.64C111.816 20.9067 112.236 21.2933 112.543 21.8C112.85 22.3067 112.983 22.92 112.943 23.64C112.903 24.3867 112.683 25.0333 112.283 25.58C111.896 26.1267 111.356 26.5467 110.663 26.84C109.983 27.12 109.176 27.26 108.243 27.26C107.67 27.26 107.136 27.2133 106.643 27.12C106.15 27.0267 105.723 26.9 105.363 26.74C105.016 26.58 104.75 26.4 104.563 26.2C104.456 25.9333 104.41 25.6133 104.423 25.24C104.436 24.8533 104.496 24.4733 104.603 24.1C104.71 23.7133 104.843 23.3933 105.003 23.14H105.163C105.123 23.74 105.23 24.2933 105.483 24.8C105.75 25.3067 106.136 25.7133 106.643 26.02C107.15 26.3133 107.756 26.46 108.463 26.46C109.236 26.46 109.816 26.28 110.203 25.92C110.59 25.56 110.783 25.14 110.783 24.66C110.783 24.3 110.663 23.98 110.423 23.7C110.196 23.4067 109.816 23.12 109.283 22.84L106.443 21.04C105.776 20.6933 105.29 20.2333 104.983 19.66C104.69 19.0867 104.583 18.46 104.663 17.78C104.73 17.14 104.916 16.5933 105.223 16.14C105.543 15.6867 105.963 15.34 106.483 15.1C107.003 14.86 107.596 14.74 108.263 14.74ZM111.943 14.92L111.923 15.28H109.783V14.92H111.943ZM126.699 15V27H123.839V15H126.699ZM118.559 15V27H115.679V15H118.559ZM123.999 20.62V21.42H118.379V20.62H123.999ZM115.739 25.74V27H114.359V26.8C114.359 26.8 114.392 26.8 114.459 26.8C114.539 26.8 114.585 26.8 114.599 26.8C114.892 26.8 115.145 26.7 115.359 26.5C115.572 26.2867 115.679 26.0333 115.679 25.74H115.739ZM118.519 25.74H118.559C118.572 26.0333 118.685 26.2867 118.899 26.5C119.112 26.7 119.365 26.8 119.659 26.8C119.659 26.8 119.692 26.8 119.759 26.8C119.839 26.8 119.879 26.8 119.879 26.8V27H118.519V25.74ZM118.519 16.26V15H119.879V15.2C119.879 15.2 119.839 15.2 119.759 15.2C119.692 15.2 119.659 15.2 119.659 15.2C119.365 15.2 119.112 15.3 118.899 15.5C118.685 15.7 118.572 15.9533 118.559 16.26H118.519ZM115.739 16.26H115.679C115.679 15.9533 115.572 15.7 115.359 15.5C115.145 15.3 114.892 15.2 114.599 15.2C114.585 15.2 114.539 15.2 114.459 15.2C114.392 15.2 114.359 15.2 114.359 15.2V15H115.739V16.26ZM123.879 25.74V27H122.519V26.8C122.519 26.8 122.552 26.8 122.619 26.8C122.699 26.8 122.739 26.8 122.739 26.8C123.032 26.8 123.285 26.7 123.499 26.5C123.712 26.2867 123.819 26.0333 123.819 25.74H123.879ZM126.639 25.74H126.699C126.712 26.0333 126.819 26.2867 127.019 26.5C127.232 26.7 127.492 26.8 127.799 26.8C127.799 26.8 127.832 26.8 127.899 26.8C127.979 26.8 128.019 26.8 128.019 26.8V27H126.639V25.74ZM126.659 16.26V15H128.039V15.2C128.039 15.2 127.999 15.2 127.919 15.2C127.839 15.2 127.799 15.2 127.799 15.2C127.492 15.2 127.232 15.3 127.019 15.5C126.819 15.7 126.719 15.9533 126.719 16.26H126.659ZM123.879 16.26H123.819C123.819 15.9533 123.712 15.7 123.499 15.5C123.285 15.3 123.032 15.2 122.739 15.2C122.739 15.2 122.699 15.2 122.619 15.2C122.552 15.2 122.519 15.2 122.519 15.2V15H123.879V16.26Z" fill="#FFCD75"/>
</svg>
