<svg xmlns="http://www.w3.org/2000/svg" width="134" height="153" viewBox="0 0 134 153" fill="none">
  <path d="M18.9343 86.0224C18.7488 85.9181 18.5634 85.8022 18.378 85.7095C14.3217 83.6582 10.2655 81.6068 6.22082 79.544C5.13143 78.9877 4.05361 78.4082 3.01057 77.794C2.40793 77.4347 1.84005 76.9943 1.30695 76.5307C1.01721 76.2874 0.762281 75.9513 0.576852 75.6152C0.159638 74.8735 0.333449 74.155 0.982448 73.6103C1.88641 72.8685 2.92946 72.5209 4.0768 72.4629C5.93108 72.3818 7.72743 72.7179 9.47741 73.2858C12.1661 74.1434 14.7389 75.2791 17.2422 76.5771C18.3779 77.1682 19.5021 77.7708 20.6379 78.3735C20.7538 78.4314 20.8813 78.4778 21.1014 78.5821C21.0087 78.385 20.974 78.2807 20.9276 78.188C19.4905 75.7427 18.0651 73.2974 16.6164 70.8636C16.1181 70.0408 15.5502 69.2527 15.0518 68.4298C14.7158 67.8736 14.3681 67.3173 14.1363 66.7147C13.6727 65.4862 14.1595 64.5011 15.3763 64.0143C16.1412 63.713 16.9293 63.7014 17.6942 63.9332C18.4823 64.165 19.2703 64.4432 20.0005 64.8256C22.2951 66.0193 24.2653 67.6418 26.0037 69.5424C27.5683 71.2344 28.9822 73.0424 30.2222 75.001C31.8331 77.5274 33.3745 80.0887 34.8579 82.6847C34.939 82.8353 35.0433 82.9744 35.2056 83.2409C35.2056 82.9976 35.2172 82.8701 35.2056 82.7542C34.6261 79.3006 34.0351 75.847 33.4672 72.3934C33.3513 71.698 33.2586 70.9911 33.247 70.2841C33.2238 69.3106 33.7453 68.7544 34.7188 68.6153C35.4606 68.511 36.1791 68.5805 36.8281 68.9861C38.2536 69.8669 39.5284 70.9099 40.3049 72.4397C42.1592 76.0788 43.6889 79.8453 44.5929 83.8436C44.7551 84.5506 44.9522 85.2575 45.1376 85.9528C45.6012 87.6449 46.3545 89.1863 47.5366 90.577C47.5482 90.577 47.6293 90.6233 47.6988 90.6233C50.9786 90.7276 54.2584 91.0405 57.5497 90.9478C60.3196 90.8783 62.9155 90.2525 65.3493 88.9081C66.4271 88.3055 67.5744 87.8187 68.6986 87.2972C70.1009 86.6482 71.5727 86.2194 73.0678 85.8949C73.23 85.8601 73.4038 85.8022 73.6704 85.7326C73.2648 85.2806 72.9403 84.8635 72.5694 84.4926C71.0976 83.0324 69.4635 81.7691 67.644 80.7609C66.2996 80.0191 64.9553 79.2774 63.6109 78.5473C61.8262 77.5738 60.2616 76.3338 59.0679 74.6765C58.2335 73.5176 57.7235 72.2427 57.5613 70.8172C57.3875 69.299 58.3957 67.6186 59.9603 67.1782C60.899 66.9117 61.803 66.8305 62.7417 67.0971C64.0977 67.4679 65.3956 67.9779 66.6473 68.5921C69.4519 69.9712 72.187 71.501 74.8177 73.2046C75.9999 73.9811 77.2283 74.6997 78.422 75.4645C80.4965 76.7973 82.7564 77.5738 85.1786 77.9794C88.8524 78.5936 92.4218 79.6251 95.9566 80.8072C99.0625 81.8502 101.786 83.5423 104.266 85.6515C106.456 87.5174 107.94 89.8237 108.716 92.5935C109.447 95.1895 110.014 97.8203 110.374 100.497C110.513 101.529 110.687 102.56 110.884 103.58C111.127 104.901 111.591 106.153 112.228 107.347C116.794 115.969 121.951 124.221 127.839 132.02C129.774 134.581 131.767 137.085 133.761 139.6C134.085 140.017 134.051 140.376 133.83 140.793C132.729 142.891 131.269 144.71 129.484 146.263C126.494 148.859 123.029 150.517 119.228 151.513C115.658 152.452 112.019 152.777 108.346 152.487C108.288 152.487 108.23 152.475 108.172 152.475C107.314 152.475 106.816 152.081 106.526 151.247C105.796 149.126 105.043 147.017 104.243 144.919C102.296 139.831 99.7811 135.068 96.2231 130.896C95.8639 130.479 95.4814 130.073 95.1221 129.656C92.4914 126.585 89.2116 124.51 85.4219 123.178C81.4816 121.787 77.4369 120.802 73.3227 120.037C69.3244 119.295 65.3261 118.496 61.3278 117.696C60.1341 117.464 58.9404 117.198 57.7583 116.896C55.2898 116.247 53.0415 115.111 51.0018 113.616C45.9952 109.931 40.8264 106.454 35.9241 102.63C33.9771 101.112 32.1344 99.4891 30.6974 97.461C30.4656 97.1249 30.1295 96.9742 29.7702 96.8699C28.0087 96.3832 26.2587 95.8385 24.4739 95.456C20.0468 94.5057 15.6081 93.6481 11.181 92.7094C9.98734 92.4544 8.8168 92.1183 7.64628 91.7591C7.17112 91.6084 6.71917 91.3419 6.30196 91.0521C5.87315 90.7624 5.69929 90.3104 5.76883 89.7657C5.91949 88.5141 6.51054 87.5985 7.65788 87.0422C9.02542 86.3816 10.4972 86.1267 11.9923 85.9992C14.1363 85.8022 16.2803 85.7906 18.4127 86.1267C18.5634 86.1499 18.7256 86.1614 18.8763 86.1846C18.9111 86.0919 18.9227 86.0571 18.9343 86.0224ZM129.658 136.03C129.484 135.787 129.38 135.624 129.264 135.474C128.661 134.697 128.047 133.921 127.456 133.144C121.291 125.043 115.913 116.444 111.15 107.451C110.64 106.489 110.246 105.481 110.049 104.415C109.794 103.105 109.562 101.784 109.377 100.463C109.006 97.8666 108.566 95.2938 107.824 92.7789C107.198 90.6929 106.155 88.8386 104.579 87.2972C102.168 84.9446 99.445 83.0671 96.2579 81.9429C92.6768 80.6797 89.0262 79.6019 85.2713 78.9993C82.4898 78.5473 79.9054 77.6317 77.5412 76.0788C76.2432 75.2212 74.922 74.4099 73.6124 73.5755C71.0512 71.9414 68.4089 70.4811 65.6738 69.1484C64.4569 68.5457 63.2053 68.001 61.8609 67.7461C60.7599 67.5491 59.4735 68.0127 58.8941 69.102C58.4768 69.8901 58.4421 70.7245 58.6275 71.5705C58.8245 72.4861 59.2881 73.2858 59.8444 74.0391C60.957 75.5572 62.4056 76.693 64.0513 77.597C65.4652 78.3735 66.8907 79.1268 68.293 79.9264C70.5877 81.236 72.6158 82.8585 74.3078 84.8982C74.4817 85.1068 74.6671 85.3038 74.8293 85.4777C74.9452 85.4893 75.0032 85.5009 75.0611 85.4893C75.2002 85.4777 75.3277 85.4429 75.4667 85.4197C78.7117 84.8403 81.9336 84.9561 85.1438 85.6979C85.4103 85.7558 85.6769 85.8485 85.9203 85.9528C86.1984 86.0687 86.2911 86.2889 86.0941 86.6714C85.8971 86.6945 85.6537 86.7525 85.4103 86.7409C85.1206 86.7293 84.8309 86.6482 84.5411 86.6134C83.3127 86.4396 82.0958 86.2078 80.8558 86.1151C78.8045 85.9644 76.7879 86.2426 74.7598 86.6018C72.6158 86.9843 70.5413 87.529 68.5595 88.4561C67.6092 88.8965 66.6821 89.3601 65.7549 89.8352C64.4917 90.4727 63.2169 91.0869 61.8261 91.4346C59.7053 91.9561 57.5381 92.014 55.3709 91.9329C53.1458 91.8518 50.9322 91.6316 48.7187 91.4809C48.5564 91.4693 48.3826 91.4809 48.0813 91.4809C49.866 94.1001 51.8362 96.3948 53.9454 98.3186C55.2435 98.3186 56.3444 98.2954 57.4454 98.3186C60.3079 98.3881 63.1358 98.759 65.9404 99.2921C67.586 99.605 69.2085 99.9874 70.8426 100.37C71.4684 100.521 72.0827 100.544 72.7085 100.37C73.3691 100.184 74.0413 100.045 74.7134 99.86C76.8343 99.2689 78.9667 98.898 81.1802 98.9908C83.7647 99.0951 86.3143 99.3964 88.8408 99.9527C94.0212 101.1 98.5294 103.511 102.412 107.103C102.644 107.312 102.875 107.544 103.061 107.787C103.351 108.181 103.258 108.401 102.678 108.656C102.412 108.448 102.099 108.216 101.821 107.961C98.7496 105.075 95.2264 102.92 91.205 101.633C88.0063 100.602 84.6918 100.127 81.3309 100.011C79.465 99.9527 77.6339 100.103 75.8376 100.613C74.9916 100.857 74.1108 101.019 73.2648 101.274C72.2681 101.564 71.3062 101.54 70.2979 101.285C66.1722 100.231 61.9884 99.5123 57.7236 99.2689C56.8196 99.2226 55.9041 99.1646 55.0117 99.2805C54.1425 99.3964 53.4471 99.2342 52.8097 98.6199C50.9438 96.8004 49.217 94.865 47.7336 92.721C47.2237 91.9908 46.7833 91.2144 46.2502 90.519C45.126 89.0472 44.4654 87.3667 44.0482 85.5936C43.3181 82.5688 42.4837 79.5787 41.232 76.7162C40.6294 75.3255 40.0151 73.9348 39.3082 72.602C38.6244 71.3156 37.4887 70.458 36.2486 69.7278C35.7967 69.4613 35.2751 69.415 34.7652 69.5308C34.348 69.6236 34.1858 69.7974 34.1858 70.2262C34.1858 70.6318 34.2321 71.049 34.3016 71.4547C34.5682 72.9497 34.8695 74.4331 35.1129 75.9281C35.7387 79.8337 36.3993 83.7393 36.9324 87.6565C37.2337 89.87 37.8364 91.9561 38.9953 93.8799C40.5019 96.3948 42.0664 98.8749 43.7585 101.274C44.5234 102.352 45.2535 103.441 45.9836 104.542C46.2154 104.89 46.3892 105.261 46.5631 105.631C46.6558 105.84 46.7253 106.083 46.424 106.304C46.285 106.141 46.1343 105.991 46.0184 105.828C44.9985 104.449 44.0019 103.059 42.982 101.691C41.1277 99.1878 39.4589 96.5686 37.9059 93.8683C37.0483 92.3617 36.4341 90.7856 36.1791 89.0703C36.0516 88.1896 35.9473 87.3088 35.7966 86.4396C35.7387 86.0803 35.6228 85.6979 35.4374 85.3966C33.4788 82.1747 31.6477 78.8602 29.5964 75.6847C28.3911 73.8305 27.0583 72.0805 25.5865 70.4464C23.8133 68.4878 21.7968 66.8421 19.4674 65.5905C18.7141 65.1849 17.926 64.8951 17.08 64.7676C16.5353 64.6865 16.0253 64.756 15.527 64.9878C15.0518 65.208 14.8317 65.5557 14.9128 66.0772C14.9591 66.3785 15.0518 66.6914 15.1909 66.9696C15.4459 67.4563 15.7356 67.9199 16.0369 68.3835C16.8018 69.6004 17.6015 70.7941 18.3548 72.0225C19.5369 73.9348 20.7074 75.847 21.8547 77.7708C22.8514 79.4397 23.906 81.0969 24.7521 82.8353C26.2703 85.9528 27.661 89.1167 29.0864 92.2806C30.0252 94.3551 31.0798 96.3368 32.5632 98.0868C33.7569 99.4891 35.1592 100.66 36.5963 101.795C41.4986 105.631 46.6442 109.131 51.6508 112.817C54.0729 114.602 56.7848 115.76 59.7401 116.398C65.048 117.534 70.3791 118.577 75.7217 119.562C79.5578 120.269 83.3127 121.323 86.9517 122.749C89.5014 123.745 91.8656 125.067 93.8705 126.956C95.4467 128.439 96.8953 130.05 98.2281 131.765C101.404 135.868 103.64 140.469 105.46 145.302C105.541 145.522 105.634 145.73 105.726 145.974C105.912 145.974 106.074 145.985 106.225 145.974C107.14 145.893 108.067 145.835 108.983 145.696C113.943 144.977 118.602 143.355 123.029 141.037C125.057 139.97 126.958 138.707 128.65 137.154C128.951 136.783 129.276 136.424 129.658 136.03ZM130.214 136.76C130.075 136.888 129.983 136.969 129.902 137.05C128.94 138.128 127.827 139.032 126.633 139.843C123.585 141.906 120.294 143.482 116.817 144.664C113.422 145.835 109.945 146.669 106.329 146.773C106.236 146.773 106.144 146.808 105.958 146.843C106.514 148.442 107.013 150.018 107.697 151.525C107.87 151.537 107.986 151.548 108.102 151.56C110.466 151.687 112.819 151.606 115.172 151.282C118.915 150.76 122.461 149.671 125.729 147.735C128.604 146.032 130.979 143.807 132.66 140.886C132.776 140.689 132.868 140.48 132.973 140.283C132.057 139.09 131.165 137.954 130.214 136.76ZM26.5484 89.5571C26.5716 89.5339 26.6063 89.5108 26.6295 89.4876C26.56 89.3137 26.4905 89.1399 26.4209 88.966C25.6792 87.332 24.9491 85.6979 24.1842 84.087C23.6395 82.9512 23.0252 81.8502 22.4574 80.7261C22.2835 80.3784 22.0286 80.135 21.6809 79.9496C20.2207 79.1847 18.7488 78.4198 17.3002 77.6317C14.8317 76.3106 12.2588 75.2212 9.61647 74.3056C7.90126 73.703 6.12811 73.3437 4.297 73.3321C3.49734 73.3321 2.70927 73.448 2.01391 73.8189C0.75068 74.491 0.936121 75.0821 1.70101 75.7427C2.33842 76.299 3.04534 76.7741 3.77547 77.1913C4.83009 77.794 5.93109 78.3271 7.02049 78.8834C11.0536 80.9231 15.1214 82.9281 19.1313 85.0025C21.4028 86.1731 23.6279 87.4363 25.6908 88.966C25.9689 89.1862 26.2587 89.3717 26.5484 89.5571ZM29.4805 95.6415C29.4457 95.514 29.4341 95.4329 29.4109 95.3749C28.8315 94.1465 28.2636 92.918 27.661 91.7011C27.5567 91.4809 27.3712 91.2723 27.1742 91.1332C26.0037 90.3104 24.81 89.5108 23.6279 88.6879C22.4226 87.8535 21.1246 87.3667 19.6644 87.1581C17.1379 86.8104 14.6114 86.6598 12.0734 86.9032C10.7174 87.0306 9.38469 87.2508 8.13305 87.8303C7.53041 88.1084 7.1132 88.5488 6.83505 89.1399C6.41784 90.0323 6.53373 90.38 7.48405 90.6813C8.49232 91.0058 9.52376 91.2839 10.5552 91.5041C13.3714 92.0836 16.1992 92.5819 19.0038 93.173C22.3879 93.8915 25.7951 94.5637 29.1096 95.5719C29.2139 95.6067 29.3183 95.6183 29.4805 95.6415Z" fill="#FFCD75"/>
  <path d="M130.214 136.76C130.075 136.887 129.983 136.968 129.901 137.049C128.94 138.127 127.827 139.031 126.633 139.843C123.585 141.905 120.294 143.482 116.817 144.664C113.421 145.834 109.945 146.669 106.329 146.773C106.236 146.773 106.143 146.808 105.958 146.842C106.514 148.442 107.013 150.018 107.696 151.525C107.87 151.536 107.986 151.548 108.102 151.559C110.466 151.687 112.819 151.606 115.171 151.281C118.915 150.76 122.461 149.67 125.729 147.735C128.603 146.031 130.979 143.806 132.66 140.886C132.776 140.689 132.868 140.48 132.973 140.283C132.057 139.089 131.165 137.953 130.214 136.76Z" fill="white"/>
  <path d="M19.8027 22.0377C20.0809 21.3192 20.2895 20.5543 20.6487 19.8705C25.4003 10.5875 32.5393 4.0743 42.6916 1.23493C51.6501 -1.26835 60.1797 0.0991787 68.1648 4.74648C73.7276 7.97989 78.062 12.4765 81.2607 18.0626C81.6315 18.7116 81.9096 19.4069 82.2457 20.0791C82.4543 20.4963 82.3385 20.8092 82.0487 21.1453C79.7309 23.8456 77.0074 26.0592 73.9246 27.8323C69.4396 30.4167 64.63 32.0624 59.5539 33.0127C53.0987 34.218 46.6319 34.2528 40.1883 33.0127C34.8572 31.9929 29.839 30.1618 25.3192 27.0906C23.4533 25.8274 21.7613 24.3671 20.2779 22.6635C20.1388 22.4781 19.9998 22.2927 19.8027 22.0377ZM21.3557 20.7513C21.3789 20.7744 21.4136 20.7976 21.4368 20.8208C21.5759 20.7513 21.715 20.6933 21.854 20.6122C23.8706 19.4533 25.9798 18.4914 28.1586 17.6685C35.0774 15.0493 42.2743 13.8788 49.6451 13.6702C53.7245 13.5543 57.7808 13.7861 61.837 14.3308C68.1648 15.1768 74.3071 16.7414 80.2176 19.1751C80.3914 19.2447 80.5769 19.3026 80.8318 19.3953C80.7739 19.2215 80.7623 19.1288 80.716 19.0592C80.1133 18.0278 79.5802 16.9384 78.8848 15.9649C75.7326 11.5146 71.8502 7.84083 67.0522 5.23324C57.3288 -0.0282875 47.3736 -0.457113 37.372 4.34085C30.2099 7.77127 25.0874 13.3226 21.5179 20.3688C21.4368 20.5079 21.4021 20.6354 21.3557 20.7513ZM81.4924 20.7629C75.8137 18.3059 70.0306 16.6255 63.9347 15.6404C64.1433 19.4649 63.0887 22.8026 60.539 25.584C57.9662 28.3886 54.7096 29.7793 50.9199 29.7677C47.8488 29.7561 45.0789 28.7247 42.7379 26.7197C39.4465 23.892 38.0095 20.2414 38.1254 15.8838C32.0642 17.0543 26.3622 19.0129 21.008 22.0725C21.1355 22.2347 21.1934 22.339 21.2746 22.4201C21.8888 23.0228 22.4914 23.6602 23.1404 24.228C26.594 27.2413 30.5923 29.2694 34.9151 30.6833C40.5591 32.526 46.3537 33.1866 52.2643 32.9316C57.6533 32.6998 62.8801 31.6568 67.9214 29.7214C72.8468 27.8207 77.2624 25.1204 80.9709 21.3192C81.1448 21.1453 81.2838 20.9831 81.4924 20.7629ZM39.4465 15.6056C38.8671 18.839 40.2694 23.7529 44.4531 26.5923C48.5094 29.3389 54.1302 29.2694 58.1169 26.2678C62.289 23.1155 63.2277 18.2364 62.6599 15.5129C61.837 15.258 58.453 14.8987 57.8851 15.0146C59.0556 20.1371 54.9878 23.7181 51.3255 23.7529C49.5408 23.7645 47.9415 23.2082 46.6203 22.0145C44.5458 20.137 43.92 17.7728 44.4879 14.9566C42.7611 15.1652 41.1154 15.3854 39.4465 15.6056ZM45.8206 14.8639C44.9399 16.8457 45.5077 19.7778 47.6749 21.4235C49.8189 23.0576 52.9017 22.9764 54.9414 21.2264C56.7841 19.6387 57.5258 16.6834 56.5176 14.8292C52.9712 14.5278 49.4017 14.5626 45.8206 14.8639Z" fill="#FFCD75"/>
  <path d="M94.0553 45.286C93.8351 45.4714 93.7308 45.5641 93.6034 45.6684C93.4411 45.5641 93.302 45.4946 93.1861 45.3903C87.9941 41.2066 82.8137 37.0112 77.6217 32.8159C76.9496 32.2712 76.3005 31.6918 75.6515 31.1239C75.4661 30.9616 75.2343 30.7994 75.3618 30.4749C75.6863 30.3706 75.8949 30.5908 76.1035 30.753C77.077 31.4947 78.0505 32.2249 79.0009 32.9897C83.6713 36.7794 88.3418 40.5923 93.0123 44.3936C93.3368 44.6601 93.6497 44.9383 94.0553 45.286Z" fill="#FFCD75"/>
  <path d="M45.5079 36.0492C45.5195 36.2578 45.5543 36.4896 45.5311 36.7214C45.3573 38.7959 45.195 40.8703 44.998 42.9448C44.6735 46.41 44.3258 49.8752 43.9781 53.3288C43.8854 54.3023 43.7811 55.2874 43.6536 56.2609C43.5957 56.7245 43.5146 56.7708 42.9699 56.6897C42.9583 56.4579 42.9119 56.2146 42.9351 55.9712C43.2364 52.8189 43.5378 49.6666 43.8507 46.5259C44.1404 43.675 44.4533 40.824 44.7546 37.9614C44.8126 37.4399 44.8937 36.9068 44.9632 36.3853C45.0212 36.1419 45.1023 35.9217 45.5079 36.0492Z" fill="#FFCD75"/>
  <path d="M51.1286 68.1396C51.0938 67.9194 51.0127 67.6761 51.0127 67.4327C51.0359 62.2986 51.0706 57.1646 51.117 52.019C51.117 51.6829 51.059 51.3004 51.3604 51.0339C51.6501 50.9411 51.7892 51.0918 51.8355 51.3352C51.8703 51.5206 51.8935 51.7292 51.8935 51.9147C51.8935 57.0719 51.8819 62.2291 51.8819 67.3863C51.8819 67.5254 51.8703 67.6645 51.8471 67.7919C51.7776 68.128 51.6038 68.2903 51.1286 68.1396Z" fill="#FFCD75"/>
  <path d="M71.3287 51.6013C70.9231 51.7983 70.7492 51.5665 70.6217 51.2768C70.3204 50.6162 70.0307 49.944 69.741 49.2834C67.9678 45.1808 66.1946 41.0898 64.4331 36.9872C64.2592 36.5932 64.1086 36.1876 63.9695 35.7704C63.8768 35.4806 63.9 35.4691 64.2013 35.1909C64.5837 35.2373 64.6764 35.5618 64.8039 35.8399C65.4066 37.1843 66.0092 38.5286 66.5887 39.8846C68.13 43.4541 69.6598 47.0352 71.1896 50.6162C71.3171 50.9292 71.5257 51.2189 71.3287 51.6013Z" fill="#FFCD75"/>
  <path d="M29.6421 32.3171C29.5609 32.4909 29.503 32.6995 29.3755 32.8386C29.051 33.1747 28.7033 33.5108 28.3441 33.8121C24.5776 36.9528 20.811 40.0819 17.0445 43.211C16.9055 43.3269 16.7664 43.4544 16.6041 43.4891C16.4535 43.5239 16.2217 43.4776 16.1406 43.3733C16.0594 43.269 16.071 43.0372 16.1406 42.8981C16.2101 42.7474 16.3723 42.6315 16.5114 42.5272C20.2431 39.4677 23.9749 36.4081 27.7066 33.3601C28.0891 33.0472 28.4831 32.7574 28.8888 32.4793C29.0742 32.3518 29.2944 32.2823 29.503 32.1896C29.5378 32.2243 29.5841 32.2707 29.6421 32.3171Z" fill="#FFCD75"/>
  <path d="M77.8536 45.3549C78.1085 45.1811 78.2476 45.3317 78.375 45.494C78.5605 45.7258 78.7459 45.9576 78.9082 46.201C81.1449 49.5966 83.3932 53.0039 85.6299 56.4111C85.7342 56.5734 85.827 56.7472 85.9428 56.9674C85.8385 57.0949 85.7458 57.2223 85.6647 57.3382C85.5488 57.3151 85.4677 57.3266 85.4329 57.2919C85.2938 57.1528 85.1432 57.0253 85.0389 56.8631C82.7906 53.3979 80.5422 49.9211 78.3055 46.4559C78.1201 46.1778 77.9926 45.8649 77.842 45.5635C77.8188 45.5056 77.8536 45.4129 77.8536 45.3549Z" fill="#FFCD75"/>
  <path d="M77.2275 43.4896C77.1 43.6287 77.0073 43.733 76.8566 43.9069C76.6712 43.733 76.4858 43.6287 76.3815 43.4549C74.307 40.2562 72.2325 37.046 70.1696 33.8358C70.0421 33.6388 69.9726 33.3954 69.8799 33.1868C70.1928 32.9086 70.3782 33.0361 70.5289 33.2447C70.7259 33.5113 70.9229 33.7894 71.1083 34.0676C73.0322 37.0113 74.9676 39.9665 76.8914 42.9102C77.0189 43.084 77.1116 43.281 77.2275 43.4896Z" fill="#FFCD75"/>
  <path d="M51.2327 36.246C51.6963 36.1765 51.7658 36.4083 51.8006 36.6517C51.8469 37.0225 51.8701 37.3934 51.8817 37.7643C51.9281 40.5921 51.9744 43.4198 52.0092 46.2476C52.0092 46.5721 51.9396 46.8966 51.9165 47.1863C51.337 47.3833 51.1747 47.3022 51.1052 46.8271C51.082 46.7112 51.082 46.5953 51.082 46.4794C51.0936 43.4314 51.0936 40.3834 51.1168 37.347C51.1168 36.9762 51.1863 36.6169 51.2327 36.246Z" fill="#FFCD75"/>
  <path d="M39.5162 35.5508C39.7828 35.968 39.6437 36.2461 39.551 36.5243C38.7397 38.9812 37.9285 41.4497 37.1057 43.9066C36.7928 44.8338 36.4682 45.7609 36.1437 46.6881C36.051 46.943 35.9931 47.2327 35.6338 47.2559C35.3788 47.1748 35.3093 47.001 35.3557 46.7576C35.3789 46.6185 35.4252 46.491 35.4716 46.3636C36.6073 43.0374 37.7431 39.7113 38.8788 36.3852C38.9368 36.223 38.9831 36.0375 39.0758 35.8984C39.1801 35.7594 39.3424 35.6783 39.5162 35.5508Z" fill="#FFCD75"/>
  <path d="M24.6008 48.4845C24.4501 48.2063 24.5545 47.9977 24.6935 47.8007C26.2465 45.5755 27.7878 43.362 29.3524 41.1368C29.5031 40.9282 29.7233 40.7544 29.9087 40.569C29.9551 40.5806 30.0014 40.6037 30.0593 40.6153C30.0709 40.7428 30.1405 40.8935 30.0941 41.0094C30.0246 41.2064 29.9203 41.4034 29.8044 41.5888C28.2978 43.7908 26.7912 45.9928 25.2846 48.1947C25.1223 48.4149 24.9716 48.6699 24.6008 48.4845Z" fill="#FFCD75"/>
  <path d="M57.6998 35.9677C57.8157 36.1415 57.9663 36.2922 58.0243 36.4776C58.4762 37.8799 58.905 39.2822 59.3222 40.6961C59.3918 40.9279 59.357 41.1828 59.3802 41.403C59.0209 41.6 58.8239 41.4957 58.6849 41.2292C58.6385 41.1249 58.5921 41.009 58.5574 40.9047C58.1749 39.5256 57.7925 38.1464 57.4216 36.7557C57.3637 36.4892 57.2478 36.1647 57.6998 35.9677Z" fill="#FFCD75"/>
  <path d="M34.3124 34.4385C34.6485 34.5775 34.6948 34.7398 34.5789 34.96C34.4862 35.1338 34.3935 35.3077 34.2892 35.4699C33.5939 36.5709 32.8985 37.6603 32.2031 38.7613C32.122 38.8888 32.0293 39.0278 31.9366 39.1437C31.7859 39.3176 31.6121 39.4566 31.3803 39.306C31.1601 39.1553 31.218 38.9235 31.2992 38.7149C31.3455 38.6106 31.4151 38.5063 31.4846 38.4136C32.2727 37.2547 33.0607 36.1073 33.8488 34.96C33.9879 34.7746 34.1617 34.6123 34.3124 34.4385Z" fill="#FFCD75"/>
  <path d="M60.5972 45.3434C60.3075 45.4825 60.0873 45.4014 60.0062 45.1464C59.8671 44.7292 59.7396 44.2888 59.6585 43.86C59.6121 43.6051 59.6933 43.3965 60.0178 43.4081C60.4234 43.8369 60.7131 44.7872 60.5972 45.3434Z" fill="#FFCD75"/>
  <path d="M45.8208 14.8639C44.9401 16.8456 45.5079 19.7777 47.6751 21.4234C49.8191 23.0575 52.9019 22.9764 54.9416 21.2264C56.7843 19.6386 57.526 16.6834 56.5178 14.8291C52.9714 14.5278 49.4019 14.5626 45.8208 14.8639Z" fill="white"/>
  <path d="M7.45515 24.3552C7.39721 24.5175 7.28131 24.6681 7.26972 24.8304C7.21177 25.63 7.15383 26.4413 7.13065 27.2409C7.0843 28.875 7.07269 30.5091 7.03792 32.1316C7.03792 32.2475 7.01477 32.3634 6.99159 32.5373C6.73662 32.5373 6.50482 32.5373 6.28462 32.5373C4.59259 32.5373 2.90055 32.5373 1.20852 32.5373C0.629052 32.5373 0.339331 32.7459 0.35092 33.1167C0.36251 33.4528 0.629064 33.673 1.18535 33.6846C2.87738 33.7078 4.56942 33.7193 6.26146 33.7193C6.49324 33.7193 6.72502 33.7193 7.01475 33.7193C7.01475 35.3882 7.01475 37.0107 7.01475 38.6332C7.02634 40.2557 6.97997 41.8898 7.03792 43.4775C7.65215 43.7673 7.9187 43.6397 7.94188 43.0835C7.97665 42.2606 7.97665 41.4378 7.97665 40.6034C7.98824 38.5521 7.97666 36.5124 7.98825 34.4611C7.98825 34.2293 7.98825 33.9975 7.98825 33.7077C8.3707 33.6846 8.70678 33.6498 9.03128 33.6382C10.4452 33.5919 11.8591 33.5455 13.273 33.4991C13.5511 33.4876 13.8408 33.4991 13.922 33.1399C13.8988 32.8617 13.7018 32.7922 13.47 32.7806C12.7051 32.7343 11.9402 32.6879 11.1753 32.6647C10.2713 32.6299 9.36738 32.6068 8.46341 32.572C8.33593 32.572 8.19684 32.5257 7.97665 32.4909C7.96506 31.1233 7.95347 29.779 7.94188 28.423C7.93029 27.0787 7.88393 25.7343 7.72168 24.4016C7.62897 24.39 7.53628 24.3668 7.45515 24.3552Z" fill="white"/>
  <path d="M119.211 50.3966C119.501 50.3966 119.732 50.3966 119.964 50.3966C121.575 50.3966 123.186 50.3966 124.808 50.3966C124.89 50.3966 124.971 50.3966 125.04 50.3966C125.573 50.4082 125.851 50.6052 125.863 50.9529C125.875 51.3006 125.596 51.5208 125.052 51.5324C123.395 51.5556 121.749 51.5672 120.092 51.5787C119.813 51.5787 119.547 51.5787 119.188 51.5787C119.188 54.8585 119.188 58.1035 119.188 61.3137C118.562 61.6382 118.295 61.4992 118.272 60.8965C118.249 60.0737 118.237 59.2392 118.237 58.4164C118.226 56.3883 118.237 54.3602 118.226 52.3436C118.226 52.1119 118.226 51.8801 118.226 51.5787C117.866 51.544 117.565 51.5092 117.264 51.4976C115.827 51.4513 114.39 51.4049 112.964 51.3585C112.686 51.347 112.396 51.3701 112.292 51.0109C112.304 50.7327 112.489 50.6516 112.732 50.64C113.52 50.5937 114.297 50.5473 115.085 50.5241C115.989 50.4893 116.893 50.4662 117.797 50.4314C117.913 50.4314 118.029 50.3967 118.203 50.3619C118.226 49.8867 118.26 49.4231 118.26 48.9596C118.272 48.0904 118.249 47.2328 118.272 46.3636C118.295 45.2394 118.342 44.1268 118.388 43.0027C118.4 42.7477 118.492 42.4928 118.55 42.2494C118.921 42.2726 118.921 42.4812 118.933 42.6782C118.979 43.3851 119.049 44.0921 119.072 44.799C119.118 46.5142 119.141 48.2178 119.164 49.933C119.176 50.0489 119.199 50.188 119.211 50.3966Z" fill="white"/>
  <path d="M59.0506 113.257C60.2095 113.083 61.3221 113.291 62.3419 113.002C62.5042 112.712 62.4463 112.538 62.2145 112.469C61.9943 112.399 61.7509 112.376 61.5191 112.353C60.7195 112.306 59.9198 112.272 59.0506 112.225C59.0506 111.866 59.0506 111.553 59.0506 111.24C59.0506 109.965 59.039 108.679 59.0274 107.404C59.0274 107.103 59.0158 107.103 58.7609 106.871C58.4248 106.998 58.4827 107.3 58.4711 107.566C58.4248 108.957 58.3784 110.359 58.3321 111.75C58.3321 111.889 58.3089 112.017 58.2973 112.214C57.289 112.445 56.2576 112.225 55.1914 112.376C55.1798 112.573 55.1682 112.747 55.145 113.002C56.1881 113.06 57.1615 113.106 58.2046 113.164C58.2162 113.373 58.2278 113.581 58.2278 113.79C58.2162 115.088 58.193 116.386 58.193 117.684C58.193 117.974 58.2277 118.263 58.2393 118.53C58.7029 118.715 58.8188 118.704 58.9231 118.368C58.9811 118.171 59.0042 117.939 59.0042 117.73C59.0158 116.467 59.0274 115.215 59.0274 113.952C59.0506 113.743 59.0506 113.523 59.0506 113.257Z" fill="white"/>
  <path d="M108.792 38.2973C108.27 38.4827 108.178 38.4595 108.073 38.1234C108.015 37.9264 108.004 37.6946 107.992 37.486C107.981 36.2228 107.969 34.9711 107.969 33.7079C107.969 33.4993 107.969 33.2791 107.969 33.0126C107.726 32.9894 107.54 32.9662 107.343 32.9546C106.671 32.9314 106.01 32.9314 105.338 32.8967C105.095 32.8851 104.852 32.8039 104.655 32.7692C104.504 32.4678 104.573 32.3056 104.805 32.2361C105.014 32.1781 105.222 32.1433 105.443 32.1318C106.242 32.0854 107.053 32.0506 107.923 32.0043C107.934 31.6913 107.946 31.4016 107.957 31.1235C107.969 29.8255 107.969 28.5275 107.969 27.2295C107.969 26.8702 107.981 26.8702 108.236 26.6616C108.572 26.8007 108.514 27.102 108.514 27.3685C108.572 28.7593 108.606 30.1616 108.653 31.5523C108.653 31.6914 108.676 31.8188 108.699 32.0043C109.707 32.2013 110.739 32.0159 111.794 32.1434C111.794 32.3636 111.794 32.5374 111.794 32.7808C110.774 32.8387 109.8 32.885 108.769 32.943C108.792 34.7277 108.792 36.5125 108.792 38.2973Z" fill="white"/>
</svg>