<svg width="52" height="46" viewBox="0 0 52 46" fill="none" xmlns="http://www.w3.org/2000/svg">
<path d="M23.5164 20.6941H12.1794C12.4243 19.8765 13.0403 19.3997 13.4486 18.7276H24.8634C25.1489 18.3539 25.4091 18.0138 25.7191 17.6083C25.8716 17.7995 26.0119 17.9157 26.0746 18.0644C26.3135 18.6312 26.7539 18.7329 27.3185 18.73C30.7004 18.7126 34.0824 18.7214 37.4646 18.7214H38.5744C39.0006 19.3377 39.4049 19.9212 39.7907 20.4774C39.7025 20.5914 39.6841 20.6222 39.6584 20.6449C39.6327 20.6684 39.6014 20.69 39.5684 20.701C39.5353 20.7128 39.4967 20.7139 39.46 20.7139C35.6401 20.7144 31.8191 20.7144 27.8776 20.7144C28.467 21.5751 28.9999 22.3527 29.536 23.1355H41.5674C42.001 23.7369 42.4218 24.3182 42.9271 25.0194C42.5688 25.0636 42.306 25.1237 42.0433 25.1243C38.7342 25.1307 35.4251 25.1285 32.1173 25.1285H30.8822C31.4641 25.9747 31.9686 26.7085 32.5064 27.4905C32.7723 27.5067 33.058 27.5389 33.3438 27.5393C36.7995 27.5428 40.2555 27.5549 43.7098 27.5299C44.3639 27.5252 44.8269 27.6584 45.1154 28.303C45.2973 28.7112 45.6207 29.0575 45.9624 29.5506H33.9141C34.5329 30.4861 35.0632 31.2881 35.6162 32.124H47.7906C47.9835 32.8406 48.6964 33.2401 48.8214 33.9572C48.7479 34.0245 48.7221 34.0518 48.6927 34.073C48.6652 34.0934 48.6321 34.1216 48.6009 34.1216C44.8177 34.1238 41.0346 34.1237 37.1229 34.1237C37.4995 34.9612 38.0103 35.5942 38.4788 36.2443C38.6001 36.4149 38.8996 36.5097 39.1311 36.5409C39.4912 36.5894 39.8642 36.5539 40.2317 36.5539C43.4673 36.5539 46.701 36.5665 49.9366 36.5425C50.554 36.5381 50.9821 36.6906 51.2577 37.2723C51.4378 37.6534 51.7097 37.9911 52 38.44C50.8994 38.6609 49.9183 38.5242 48.9463 38.5496C47.9909 38.5749 47.0355 38.5553 46.0782 38.5553H40.1545C40.5385 39.6024 41.2863 40.2657 41.7732 41.0911C42.2693 41.9313 42.826 42.736 43.3754 43.5434C43.9174 44.3406 44.4852 45.1214 45.1062 46H6.35748C7.22343 44.6757 8.00264 43.4457 8.82137 42.2426C9.63495 41.0472 10.4882 39.8789 11.4227 38.5597H0C0.433065 37.8294 0.794113 37.2199 1.18069 36.5678H12.7546C13.2928 35.7693 13.7972 35.0212 14.3518 34.1984C14.0456 34.1779 13.7788 34.1446 13.512 34.1442C10.4241 34.1405 7.33625 34.1455 4.24837 34.1367C3.89927 34.1357 3.49964 34.2725 3.16927 33.8039C3.5136 33.2831 3.88147 32.7271 4.24985 32.1702H15.7391C16.3279 31.2952 16.8849 30.4681 17.5266 29.5145H6.10924C6.57904 28.7879 6.96052 28.1987 7.36381 27.5748H18.8591C19.3704 26.8137 19.8676 26.0735 20.426 25.2421C19.4322 25.0277 18.5289 25.1576 17.637 25.134C16.7187 25.1096 15.7991 25.1285 14.8803 25.1285H9.30793C9.41486 24.5234 9.68863 24.1102 9.96644 23.7074C10.2531 23.292 10.6354 23.1173 11.1776 23.1217C14.449 23.1488 17.7208 23.121 20.9925 23.1472C21.6493 23.1525 22.0886 23.0018 22.3932 22.3681C22.6562 21.8211 23.0698 21.3465 23.5164 20.6941Z" fill="#EAB15A"/>
<path d="M15.2519 16.0208C15.6507 15.4551 15.9976 14.9484 16.3608 14.4536C16.5442 14.2036 16.7975 14.0723 17.1239 14.1156C17.2321 14.1299 17.344 14.1178 17.4542 14.1178C23.3323 14.1179 29.2106 14.1178 35.0889 14.1187C35.1973 14.1189 35.3075 14.1299 35.4931 14.1403C35.8716 14.6939 36.274 15.2827 36.7407 15.9652C36.5184 16.0287 36.3659 16.1089 36.2152 16.1091C29.3447 16.1141 22.4748 16.1119 15.6048 16.108C15.5355 16.108 15.4662 16.0752 15.2519 16.0208Z" fill="#EAB15A"/>
<path d="M18.2382 11.6503C18.7242 10.9207 19.1002 10.3561 19.5018 9.75299C19.782 9.73906 20.0684 9.71267 20.3551 9.71249C24.0575 9.70956 27.7604 9.72844 31.4626 9.69544C32.2016 9.68884 32.7113 9.84558 33.0417 10.5569C33.2014 10.9008 33.5207 11.1721 33.5811 11.6503H18.2382Z" fill="#EAB15A"/>
<path d="M21.4086 7.29528C21.4764 6.98896 21.467 6.78936 21.5578 6.65938C22.1918 5.75209 23.079 5.2994 24.2192 5.30136H29.4188C29.8265 5.85772 30.2296 6.40805 30.6952 7.0436C30.4765 7.12885 30.2638 7.28337 30.0499 7.28465C27.2239 7.30079 24.3976 7.29528 21.4086 7.29528Z" fill="#EAB15A"/>
<path d="M24.4309 2.89001C24.7577 1.72301 25.4771 0.968276 25.9919 0C26.6025 0.95599 27.276 1.7547 27.6808 2.87587C26.6098 2.90648 25.6354 2.88543 24.4309 2.89001Z" fill="#EAB15A"/>
</svg>
