<svg width="45" height="55" viewBox="0 0 45 55" fill="none" xmlns="http://www.w3.org/2000/svg">
<path d="M3.07375 19.0204L3.07385 19.0204C3.97979 18.8679 4.99358 19.1927 5.949 20.0014C6.90331 20.8093 7.77092 22.0806 8.34599 23.7358L8.34602 23.7359C8.52949 24.2636 8.65079 24.8334 8.75407 25.4202C8.79176 25.6343 8.82792 25.8567 8.86422 26.0799C8.92407 26.448 8.98429 26.8183 9.05237 27.1578C9.26738 28.23 9.62143 29.3784 10.6831 29.8695L10.6839 29.8699C11.6234 30.3027 13.1571 29.8159 13.6409 27.9678L19.7439 4.65314L19.744 4.65266L19.7441 4.6523L19.7445 4.65093L19.7493 4.63441C19.754 4.61848 19.7618 4.59306 19.773 4.55972C19.7955 4.4929 19.8313 4.39521 19.8824 4.27897C19.9858 4.04422 20.1466 3.74589 20.3783 3.47359C20.609 3.20251 20.9009 2.96727 21.2683 2.8357C21.6309 2.70584 22.1011 2.66452 22.7147 2.83291C23.3283 3.00131 23.7152 3.27785 23.9658 3.57599C24.2197 3.87807 24.3576 4.23129 24.4249 4.58413C24.4925 4.93858 24.4861 5.27931 24.4609 5.5355C24.4485 5.66236 24.4317 5.76526 24.4185 5.83464C24.412 5.86925 24.4063 5.89527 24.4026 5.91148L24.3987 5.92823L24.3985 5.9292L24.3984 5.92962L24.3983 5.92997L24.3981 5.93049L19.9201 23.0374L20.4023 23.1698L20.8844 23.3021C20.8381 23.4793 20.7151 23.5695 20.6531 23.6049C20.5904 23.6406 20.535 23.6535 20.5121 23.6582C20.4634 23.6682 20.4262 23.6675 20.4209 23.6675C20.4022 23.6673 20.3949 23.6657 20.4102 23.6676C20.435 23.6707 20.4797 23.678 20.5451 23.6901C20.673 23.7137 20.8459 23.7494 21.025 23.787C21.0663 23.7957 21.108 23.8045 21.1494 23.8132C21.284 23.8415 21.4152 23.8692 21.52 23.8902C21.5878 23.9038 21.6509 23.916 21.6994 23.924C21.7217 23.9276 21.7519 23.9323 21.7814 23.935C21.7928 23.936 21.8251 23.9389 21.8638 23.937C21.8795 23.9362 21.9281 23.9334 21.9865 23.9156L21.9878 23.9152C22.0124 23.9079 22.2499 23.8372 22.3207 23.567L27.7295 2.90397L27.7297 2.90346L27.7298 2.9031L27.7299 2.90268L27.7302 2.90173L27.7349 2.88521C27.7397 2.86928 27.7475 2.84386 27.7587 2.81052C27.7812 2.74369 27.8169 2.64601 27.8681 2.52977C27.9714 2.29502 28.1323 1.99669 28.364 1.72439C28.5946 1.45331 28.8866 1.21807 29.254 1.08649C29.6166 0.956638 30.0867 0.915315 30.7003 1.08371C31.3139 1.25211 31.7009 1.52865 31.9514 1.82679C32.2053 2.12887 32.3432 2.48209 32.4106 2.83493C32.4782 3.18938 32.4718 3.53011 32.4466 3.7863C32.4341 3.91316 32.4174 4.01606 32.4042 4.08544C32.3976 4.12005 32.392 4.14607 32.3883 4.16228L32.3843 4.17903L32.3841 4.18L32.384 4.18042L32.3839 4.18077L32.3838 4.18129L26.9741 24.8472C26.9344 24.9988 26.9745 25.126 27.0093 25.1974C27.0426 25.2657 27.0835 25.3106 27.1045 25.3319C27.1467 25.3749 27.1871 25.4003 27.1997 25.4082C27.2314 25.4281 27.2599 25.441 27.27 25.4456C27.2962 25.4575 27.324 25.4682 27.3451 25.476C27.3907 25.493 27.4512 25.5138 27.5167 25.5359C27.6166 25.5694 27.7421 25.6104 27.8711 25.6525C27.913 25.6662 27.9552 25.68 27.9971 25.6937C28.171 25.7506 28.3389 25.8062 28.4618 25.8496C28.5247 25.8718 28.5674 25.8879 28.5909 25.8977C28.6053 25.9037 28.5987 25.9017 28.583 25.8929L28.5825 25.8927C28.5768 25.8895 28.5453 25.8721 28.5091 25.8408C28.4917 25.8259 28.449 25.7873 28.4106 25.7248C28.373 25.6637 28.3039 25.5186 28.3522 25.3342L28.8344 25.4665L29.3165 25.5989L33.8866 8.14043L33.8867 8.13991L33.8868 8.13956L33.8869 8.13914L33.8872 8.13818L33.892 8.12167C33.8967 8.10573 33.9045 8.08031 33.9157 8.04698C33.9382 7.98015 33.974 7.88246 34.0251 7.76622C34.1285 7.53148 34.2893 7.23315 34.521 6.96084C34.7517 6.68977 35.0436 6.45452 35.411 6.32295C35.7736 6.19309 36.2438 6.15177 36.8574 6.32017C37.471 6.48857 37.8579 6.76511 38.1085 7.06324C38.3624 7.36533 38.5003 7.71854 38.5676 8.07139C38.6352 8.42583 38.6288 8.76656 38.6036 9.02276C38.5912 9.14962 38.5744 9.25252 38.5612 9.3219C38.5547 9.3565 38.549 9.38252 38.5453 9.39874L38.5414 9.41548L38.5412 9.41645L38.5411 9.41687L38.541 9.41723L38.5408 9.41774L38.5408 9.418L33.6759 28.0027C33.6282 28.1848 33.6881 28.3338 33.7268 28.4063C33.7669 28.4812 33.8167 28.5364 33.8495 28.5695C33.9166 28.6374 33.9975 28.6969 34.0639 28.7426C34.1853 28.8261 34.3423 28.9194 34.4837 29.0035C34.5019 29.0142 34.5197 29.0248 34.5372 29.0352C34.7044 29.1348 34.8443 29.2203 34.9385 29.2901C34.9878 29.3266 34.9993 29.3407 34.9933 29.3336L34.9932 29.3335C34.9896 29.3293 34.9661 29.3017 34.9454 29.2524C34.9234 29.2001 34.8947 29.098 34.9273 28.9735L35.4095 29.1058L35.8917 29.2382L39.1774 16.6861L39.1774 16.6859L39.1776 16.6854L39.1777 16.685L39.1778 16.6846L39.1781 16.6836L39.1828 16.6671C39.1876 16.6512 39.1954 16.6258 39.2066 16.5924C39.2291 16.5256 39.2648 16.4279 39.316 16.3117C39.4193 16.0769 39.5802 15.7786 39.8119 15.5063C40.0425 15.2352 40.3345 15 40.7019 14.8684C41.0645 14.7385 41.5346 14.6972 42.1482 14.8656C42.7618 15.034 43.1488 15.3106 43.3993 15.6087C43.6532 15.9108 43.7911 16.264 43.8585 16.6168C43.9261 16.9713 43.9197 17.312 43.8945 17.5682C43.882 17.6951 43.8653 17.798 43.8521 17.8673C43.8455 17.902 43.8399 17.928 43.8362 17.9442L43.8322 17.9609L43.832 17.9619L43.8319 17.9623L43.8318 17.9627L43.8317 17.9632L43.8316 17.9634L37.9612 40.3895C35.4748 49.8882 26.1177 55.5365 17.0946 53.0602C10.5931 51.276 7.08214 46.3488 5.57783 41.7927C4.30714 37.9432 4.57503 34.3748 4.71146 33.3112L4.71485 33.2904C4.71804 33.2703 4.72236 33.2419 4.72736 33.2057C4.73737 33.1332 4.75017 33.0294 4.76233 32.8982C4.78664 32.636 4.80853 32.2633 4.80039 31.8121C4.78413 30.9118 4.64806 29.6864 4.16347 28.3994L4.16339 28.3992C2.85177 24.9207 1.85468 22.7647 1.24649 21.4719L1.24616 21.4712C1.16298 21.2951 1.09424 20.76 1.32952 20.2166C1.54522 19.7184 2.02698 19.1964 3.07375 19.0204Z" fill="#FFDC5D" stroke="#A7A7A7"/>
</svg>
